<?xml version="1.0" encoding="utf-8"?>
<!-- Generator: Adobe Illustrator 22.1.0, SVG Export Plug-In . SVG Version: 6.00 Build 0)  -->
<svg version="1.1" id="Layer_1" xmlns="http://www.w3.org/2000/svg" xmlns:xlink="http://www.w3.org/1999/xlink" x="0px" y="0px"
	 viewBox="0 0 200 200" style="enable-background:new 0 0 200 200;" xml:space="preserve">
<style type="text/css">
	.st0{fill:url(#SVGID_1_);}
	.st1{fill:none;stroke:#929497;stroke-width:1.987;stroke-linejoin:round;}
	.st2{fill:none;stroke:#D0D2D3;stroke-linejoin:round;}
</style>
<g>
	<linearGradient id="SVGID_1_" gradientUnits="userSpaceOnUse" x1="24.9993" y1="100" x2="175.0007" y2="100">
		<stop  offset="0" style="stop-color:#FFFFFF"/>
		<stop  offset="0.4379" style="stop-color:#FCFCFC"/>
		<stop  offset="0.7631" style="stop-color:#F3F3F4"/>
		<stop  offset="1" style="stop-color:#E6E7E8"/>
	</linearGradient>
	<polygon class="st0" points="144,175 175,144 175,56 144,25 56,25 25,56 25,144 56,175 	"/>
	<polygon class="st1" points="137.9,35.3 62.1,35.3 35.3,62.1 35.3,137.9 62.1,164.7 137.9,164.7 164.7,137.9 164.7,62.1 	"/>
	<polygon class="st1" points="131.9,45.7 68.1,45.7 45.7,68.1 45.7,131.9 68.1,154.3 131.9,154.3 154.3,131.9 154.3,68.1 	"/>
	<polygon class="st1" points="125.8,56 74.2,56 56,74.2 56,125.8 74.2,144 125.8,144 144,125.8 144,74.2 	"/>
	<polygon class="st2" points="25,144 175,56 175,144 25,56 	"/>
	<polygon class="st2" points="56,175 144,25 56,25 144,175 	"/>
	<polygon class="st1" points="74.2,56 56,74.2 25,56 56,25 	"/>
	<polygon class="st1" points="125.8,56 144,74.2 175,56 144,25 	"/>
	<polygon class="st1" points="125.8,144 144,125.8 175,144 144,175 	"/>
	<polygon class="st1" points="74.2,144 56,125.8 25,144 56,175 	"/>
	<polygon class="st1" points="144,175 175,144 175,56 144,25 56,25 25,56 25,144 56,175 	"/>
</g>
</svg>
