<?xml version="1.0" encoding="utf-8"?>
<!-- Generator: Adobe Illustrator 22.1.0, SVG Export Plug-In . SVG Version: 6.00 Build 0)  -->
<svg version="1.1" id="Layer_1" xmlns="http://www.w3.org/2000/svg" xmlns:xlink="http://www.w3.org/1999/xlink" x="0px" y="0px"
	 viewBox="0 0 200 200" style="enable-background:new 0 0 200 200;" xml:space="preserve">
<style type="text/css">
	.st0{clip-path:url(#SVGID_2_);fill:#FFFFFF;}
	.st1{clip-path:url(#SVGID_2_);fill:#FEFEFE;}
	.st2{clip-path:url(#SVGID_2_);fill:#FDFDFD;}
	.st3{clip-path:url(#SVGID_2_);fill:#FCFCFD;}
	.st4{clip-path:url(#SVGID_2_);fill:#FCFCFC;}
	.st5{clip-path:url(#SVGID_2_);fill:#FBFBFB;}
	.st6{clip-path:url(#SVGID_2_);fill:#FAFAFA;}
	.st7{clip-path:url(#SVGID_2_);fill:#F9F9F9;}
	.st8{clip-path:url(#SVGID_2_);fill:#F8F8F8;}
	.st9{clip-path:url(#SVGID_2_);fill:#F6F7F7;}
	.st10{clip-path:url(#SVGID_2_);fill:#F5F5F6;}
	.st11{clip-path:url(#SVGID_2_);fill:#F3F4F4;}
	.st12{clip-path:url(#SVGID_2_);fill:#F1F2F2;}
	.st13{clip-path:url(#SVGID_2_);fill:#EFF0F1;}
	.st14{clip-path:url(#SVGID_2_);fill:#EDEEEF;}
	.st15{clip-path:url(#SVGID_2_);fill:#EBECED;}
	.st16{clip-path:url(#SVGID_2_);fill:#E9E9EA;}
	.st17{clip-path:url(#SVGID_2_);fill:#E6E7E8;}
	.st18{fill:#929497;}
</style>
<g>
	<g>
		<g>
			<defs>
				<polygon id="SVGID_1_" points="40.9,159.9 30.4,141.5 26.8,100.3 30.4,59.1 40.9,40.7 59.4,30.1 100.6,26.5 141.7,30.1 
					160.2,40.7 170.7,59.1 174.4,100.3 170.7,141.5 160.2,159.9 141.7,170.5 100.6,174.1 59.4,170.5 				"/>
			</defs>
			<clipPath id="SVGID_2_">
				<use xlink:href="#SVGID_1_"  style="overflow:visible;"/>
			</clipPath>
			<path class="st0" d="M26.8,26.5v147.6V26.5z"/>
			<rect x="26.8" y="26.5" class="st0" width="5.9" height="147.6"/>
			<rect x="32.7" y="26.5" class="st0" width="5.9" height="147.6"/>
			<rect x="38.6" y="26.5" class="st0" width="5.9" height="147.6"/>
			<rect x="44.5" y="26.5" class="st0" width="5.9" height="147.6"/>
			<rect x="50.4" y="26.5" class="st0" width="5.9" height="147.6"/>
			<rect x="56.3" y="26.5" class="st0" width="5.9" height="147.6"/>
			<rect x="62.2" y="26.5" class="st1" width="5.9" height="147.6"/>
			<rect x="68.1" y="26.5" class="st1" width="5.9" height="147.6"/>
			<rect x="74" y="26.5" class="st1" width="5.9" height="147.6"/>
			<rect x="79.9" y="26.5" class="st2" width="5.9" height="147.6"/>
			<rect x="85.8" y="26.5" class="st3" width="5.9" height="147.6"/>
			<rect x="91.7" y="26.5" class="st4" width="5.9" height="147.6"/>
			<rect x="97.6" y="26.5" class="st5" width="5.9" height="147.6"/>
			<rect x="103.5" y="26.5" class="st6" width="5.9" height="147.6"/>
			<rect x="109.4" y="26.5" class="st7" width="5.9" height="147.6"/>
			<rect x="115.3" y="26.5" class="st8" width="5.9" height="147.6"/>
			<rect x="121.2" y="26.5" class="st9" width="5.9" height="147.6"/>
			<rect x="127.1" y="26.5" class="st10" width="5.9" height="147.6"/>
			<rect x="133" y="26.5" class="st11" width="5.9" height="147.6"/>
			<rect x="138.9" y="26.5" class="st12" width="5.9" height="147.6"/>
			<rect x="144.8" y="26.5" class="st13" width="5.9" height="147.6"/>
			<rect x="150.8" y="26.5" class="st14" width="5.9" height="147.6"/>
			<rect x="156.7" y="26.5" class="st15" width="5.9" height="147.6"/>
			<rect x="162.6" y="26.5" class="st16" width="5.9" height="147.6"/>
			<rect x="168.5" y="26.5" class="st17" width="5.9" height="147.6"/>
			<path class="st17" d="M174.4,174.1V26.5V174.1z"/>
		</g>
	</g>
	<g>
		<g>
			<path class="st18" d="M100.6,175.3c0,0-0.1,0-0.1,0l-41.2-3.6c-0.2,0-0.3-0.1-0.5-0.2L40.3,161c-0.2-0.1-0.3-0.3-0.4-0.4
				l-10.5-18.4c-0.1-0.2-0.1-0.3-0.2-0.5l-3.6-41.2c0-0.1,0-0.1,0-0.2L29.2,59c0-0.2,0.1-0.3,0.2-0.5l10.5-18.5
				c0.1-0.2,0.3-0.3,0.4-0.4l18.5-10.5c0.2-0.1,0.3-0.1,0.5-0.2l41.2-3.6c0.1,0,0.1,0,0.2,0l41.2,3.6c0.2,0,0.3,0.1,0.5,0.2
				l18.5,10.5c0.2,0.1,0.3,0.3,0.4,0.4l10.5,18.5c0.1,0.2,0.1,0.3,0.2,0.5l3.6,41.2c0,0.1,0,0.1,0,0.2l-3.6,41.2
				c0,0.2-0.1,0.3-0.2,0.5l-10.5,18.4c-0.1,0.2-0.3,0.3-0.4,0.4l-18.5,10.5c-0.2,0.1-0.3,0.1-0.5,0.2l-41.2,3.6
				C100.6,175.3,100.6,175.3,100.6,175.3z M59.7,169.3l40.8,3.6l40.8-3.6l17.9-10.3l10.3-17.9l3.6-40.8l-3.6-40.8l-10.3-17.9
				l-17.9-10.3l-40.8-3.6l-40.8,3.6L41.8,41.5L31.6,59.5L28,100.3l3.6,40.8l10.3,17.9L59.7,169.3z"/>
		</g>
		<g>
			<g>
				<path class="st18" d="M100.6,62.2c-0.2,0-0.4,0-0.5-0.1L64,44.8c-0.4-0.2-0.7-0.6-0.7-1.1s0.3-0.9,0.7-1.1L100,25.4
					c0.3-0.2,0.7-0.2,1,0l36.1,17.2c0.4,0.2,0.7,0.6,0.7,1.1s-0.3,0.9-0.7,1.1l-36.1,17.2C100.9,62.1,100.7,62.2,100.6,62.2z
					 M67.3,43.7l33.3,15.9l33.3-15.9l-33.3-15.9L67.3,43.7z"/>
			</g>
		</g>
		<g>
			<g>
				<path class="st18" d="M100.6,175.3c-0.2,0-0.4,0-0.5-0.1L64,157.9c-0.4-0.2-0.7-0.6-0.7-1.1c0-0.5,0.3-0.9,0.7-1.1l36.1-17.2
					c0.3-0.2,0.7-0.2,1,0l36.1,17.2c0.4,0.2,0.7,0.6,0.7,1.1c0,0.5-0.3,0.9-0.7,1.1l-36.1,17.2C100.9,175.3,100.7,175.3,100.6,175.3
					z M67.3,156.9l33.3,15.9l33.3-15.9L100.6,141L67.3,156.9z"/>
			</g>
		</g>
		<g>
			<g>
				<path class="st18" d="M157.1,137.6c-0.5,0-0.9-0.3-1.1-0.7l-17.2-36.1c-0.2-0.3-0.2-0.7,0-1L156,63.7c0.2-0.4,0.6-0.7,1.1-0.7
					c0.5,0,0.9,0.3,1.1,0.7l17.2,36.1c0.2,0.3,0.2,0.7,0,1l-17.2,36.1C158,137.3,157.6,137.6,157.1,137.6z M141.2,100.3l15.9,33.3
					l15.9-33.3L157.1,67L141.2,100.3z"/>
			</g>
		</g>
		<g>
			<g>
				<path class="st18" d="M66.4,67.4c0,0-0.1,0-0.1,0l-22.4-2c-0.6,0-1-0.5-1.1-1l-3.1-23.6c0-0.4,0.1-0.7,0.3-1
					c0.3-0.3,0.6-0.4,1-0.3l23.6,3.1c0.6,0.1,1,0.5,1,1.1l2,22.4c0,0.4-0.1,0.7-0.3,1C67.1,67.3,66.8,67.4,66.4,67.4z M45.1,63.1
					l20.1,1.7l-1.7-20.1l-21.1-2.7L45.1,63.1z"/>
			</g>
		</g>
		<g>
			<g>
				<path class="st18" d="M134.7,67.4c-0.3,0-0.6-0.1-0.8-0.4c-0.3-0.3-0.4-0.6-0.3-1l2-22.4c0-0.6,0.5-1,1-1.1l23.6-3.1
					c0.4,0,0.7,0.1,1,0.3c0.3,0.3,0.4,0.6,0.3,1l-3.1,23.6c-0.1,0.6-0.5,1-1.1,1l-22.4,2C134.8,67.4,134.7,67.4,134.7,67.4z
					 M137.8,44.8L136,64.9l20.1-1.7l2.7-21.1L137.8,44.8z"/>
			</g>
		</g>
		<g>
			<g>
				<path class="st18" d="M160.2,161.1c-0.1,0-0.1,0-0.2,0l-23.6-3.1c-0.6-0.1-1-0.5-1-1.1l-2-22.4c0-0.4,0.1-0.7,0.3-0.9
					c0.2-0.3,0.6-0.4,0.9-0.3l22.4,2c0.6,0,1,0.5,1.1,1l3.1,23.6c0,0.4-0.1,0.7-0.3,1C160.8,161,160.5,161.1,160.2,161.1z
					 M137.8,155.8l21.1,2.7l-2.7-21.1l-20.1-1.7L137.8,155.8z"/>
			</g>
		</g>
		<g>
			<g>
				<path class="st18" d="M40.9,161.1c-0.3,0-0.6-0.1-0.8-0.4c-0.3-0.3-0.4-0.6-0.3-1l3.1-23.6c0.1-0.6,0.5-1,1.1-1l22.4-2
					c0.3,0,0.7,0.1,1,0.3c0.3,0.2,0.4,0.6,0.3,0.9l-2,22.4c0,0.6-0.5,1-1,1.1l-23.6,3.1C41,161.1,41,161.1,40.9,161.1z M45.1,137.5
					l-2.7,21.1l21.1-2.7l1.7-20.1L45.1,137.5z"/>
			</g>
		</g>
		<g>
			<g>
				<path class="st18" d="M44,137.6c-0.5,0-0.9-0.3-1.1-0.7l-17.2-36.1c-0.2-0.3-0.2-0.7,0-1l17.2-36.1c0.2-0.4,0.6-0.7,1.1-0.7
					s0.9,0.3,1.1,0.7l17.2,36.1c0.2,0.3,0.2,0.7,0,1l-17.2,36.1C44.9,137.3,44.5,137.6,44,137.6z M28.1,100.3L44,133.6l15.9-33.3
					L44,67L28.1,100.3z"/>
			</g>
		</g>
		<g>
			<path class="st18" d="M100.6,140.8c-0.1,0-0.1,0-0.2,0l-34.1-5.2c-0.5-0.1-0.9-0.5-1-1l-5.2-34.1c0-0.1,0-0.2,0-0.4L65.3,66
				c0.1-0.5,0.5-0.9,1-1l34.1-5.2c0.1,0,0.2,0,0.4,0l34.1,5.2c0.5,0.1,0.9,0.5,1,1l5.2,34.1c0,0.1,0,0.2,0,0.4l-5.2,34.1
				c-0.1,0.5-0.5,0.9-1,1l-34.1,5.2C100.7,140.8,100.6,140.8,100.6,140.8z M67.5,133.4l33.1,5l33.1-5l5-33.1l-5-33.1l-33.1-5
				l-33.1,5l-5,33.1L67.5,133.4z"/>
		</g>
	</g>
</g>
</svg>
