<?xml version="1.0" encoding="utf-8"?>
<!-- Generator: Adobe Illustrator 25.2.0, SVG Export Plug-In . SVG Version: 6.00 Build 0)  -->
<svg version="1.1" xmlns="http://www.w3.org/2000/svg" xmlns:xlink="http://www.w3.org/1999/xlink" x="0px" y="0px"
	 viewBox="0 0 200 200" style="enable-background:new 0 0 200 200;" xml:space="preserve">
<style type="text/css">
	.st0{clip-path:url(#SVGID_2_);fill:#FFFFFF;}
	.st1{clip-path:url(#SVGID_4_);fill:#FFFFFF;}
	.st2{clip-path:url(#SVGID_6_);fill:#FFFFFF;}
	.st3{clip-path:url(#SVGID_8_);fill:#FFFFFF;}
	.st4{clip-path:url(#SVGID_10_);fill:#FFFFFF;}
	.st5{clip-path:url(#SVGID_12_);fill:#FFFFFF;}
	.st6{clip-path:url(#SVGID_14_);fill:#FFFFFF;}
	.st7{clip-path:url(#SVGID_16_);fill:#FEFEFE;}
	.st8{clip-path:url(#SVGID_18_);fill:#FEFEFE;}
	.st9{clip-path:url(#SVGID_20_);fill:#FEFEFE;}
	.st10{clip-path:url(#SVGID_22_);fill:#FDFDFD;}
	.st11{clip-path:url(#SVGID_24_);fill:#FCFCFD;}
	.st12{clip-path:url(#SVGID_26_);fill:#FCFCFC;}
	.st13{clip-path:url(#SVGID_28_);fill:#FBFBFB;}
	.st14{clip-path:url(#SVGID_30_);fill:#FAFAFA;}
	.st15{clip-path:url(#SVGID_32_);fill:#F9F9F9;}
	.st16{clip-path:url(#SVGID_34_);fill:#F8F8F8;}
	.st17{clip-path:url(#SVGID_36_);fill:#F6F7F7;}
	.st18{clip-path:url(#SVGID_38_);fill:#F5F5F6;}
	.st19{clip-path:url(#SVGID_40_);fill:#F3F4F4;}
	.st20{clip-path:url(#SVGID_42_);fill:#F1F2F2;}
	.st21{clip-path:url(#SVGID_44_);fill:#EFF0F1;}
	.st22{clip-path:url(#SVGID_46_);fill:#EDEEEF;}
	.st23{clip-path:url(#SVGID_48_);fill:#EBECED;}
	.st24{clip-path:url(#SVGID_50_);fill:#E9E9EA;}
	.st25{clip-path:url(#SVGID_52_);fill:#E6E7E8;}
	.st26{clip-path:url(#SVGID_54_);fill:#E6E7E8;}
	.st27{fill:#929497;}
	.st28{display:none;}
</style>
<g id="Layer_1">
	<g>
		<g>
			<g>
				<g>
					<defs>
						<polygon id="SVGID_1_" points="48.5,170.3 39.4,148.6 36.4,100 39.4,51.5 48.5,29.8 64.4,17.3 99.8,13 135.1,17.3 151,29.8 
							160,51.5 163.2,100 160,148.6 151,170.3 135.1,182.8 99.8,187 64.4,182.8 						"/>
					</defs>
					<clipPath id="SVGID_2_">
						<use xlink:href="#SVGID_1_"  style="overflow:visible;"/>
					</clipPath>
				</g>
				<g>
					<defs>
						<polygon id="SVGID_3_" points="48.5,170.3 39.4,148.6 36.4,100 39.4,51.5 48.5,29.8 64.4,17.3 99.8,13 135.1,17.3 151,29.8 
							160,51.5 163.2,100 160,148.6 151,170.3 135.1,182.8 99.8,187 64.4,182.8 						"/>
					</defs>
					<clipPath id="SVGID_4_">
						<use xlink:href="#SVGID_3_"  style="overflow:visible;"/>
					</clipPath>
					<rect x="36.4" y="13" class="st1" width="5.1" height="174"/>
				</g>
				<g>
					<defs>
						<polygon id="SVGID_5_" points="48.5,170.3 39.4,148.6 36.4,100 39.4,51.5 48.5,29.8 64.4,17.3 99.8,13 135.1,17.3 151,29.8 
							160,51.5 163.2,100 160,148.6 151,170.3 135.1,182.8 99.8,187 64.4,182.8 						"/>
					</defs>
					<clipPath id="SVGID_6_">
						<use xlink:href="#SVGID_5_"  style="overflow:visible;"/>
					</clipPath>
					<rect x="41.4" y="13" class="st2" width="5.1" height="174"/>
				</g>
				<g>
					<defs>
						<polygon id="SVGID_7_" points="48.5,170.3 39.4,148.6 36.4,100 39.4,51.5 48.5,29.8 64.4,17.3 99.8,13 135.1,17.3 151,29.8 
							160,51.5 163.2,100 160,148.6 151,170.3 135.1,182.8 99.8,187 64.4,182.8 						"/>
					</defs>
					<clipPath id="SVGID_8_">
						<use xlink:href="#SVGID_7_"  style="overflow:visible;"/>
					</clipPath>
					<rect x="46.5" y="13" class="st3" width="5.1" height="174"/>
				</g>
				<g>
					<defs>
						<polygon id="SVGID_9_" points="48.5,170.3 39.4,148.6 36.4,100 39.4,51.5 48.5,29.8 64.4,17.3 99.8,13 135.1,17.3 151,29.8 
							160,51.5 163.2,100 160,148.6 151,170.3 135.1,182.8 99.8,187 64.4,182.8 						"/>
					</defs>
					<clipPath id="SVGID_10_">
						<use xlink:href="#SVGID_9_"  style="overflow:visible;"/>
					</clipPath>
					<rect x="51.6" y="13" class="st4" width="5.1" height="174"/>
				</g>
				<g>
					<defs>
						<polygon id="SVGID_11_" points="48.5,170.3 39.4,148.6 36.4,100 39.4,51.5 48.5,29.8 64.4,17.3 99.8,13 135.1,17.3 151,29.8 
							160,51.5 163.2,100 160,148.6 151,170.3 135.1,182.8 99.8,187 64.4,182.8 						"/>
					</defs>
					<clipPath id="SVGID_12_">
						<use xlink:href="#SVGID_11_"  style="overflow:visible;"/>
					</clipPath>
					<rect x="56.6" y="13" class="st5" width="5.1" height="174"/>
				</g>
				<g>
					<defs>
						<polygon id="SVGID_13_" points="48.5,170.3 39.4,148.6 36.4,100 39.4,51.5 48.5,29.8 64.4,17.3 99.8,13 135.1,17.3 151,29.8 
							160,51.5 163.2,100 160,148.6 151,170.3 135.1,182.8 99.8,187 64.4,182.8 						"/>
					</defs>
					<clipPath id="SVGID_14_">
						<use xlink:href="#SVGID_13_"  style="overflow:visible;"/>
					</clipPath>
					<rect x="61.7" y="13" class="st6" width="5.1" height="174"/>
				</g>
				<g>
					<defs>
						<polygon id="SVGID_15_" points="48.5,170.3 39.4,148.6 36.4,100 39.4,51.5 48.5,29.8 64.4,17.3 99.8,13 135.1,17.3 151,29.8 
							160,51.5 163.2,100 160,148.6 151,170.3 135.1,182.8 99.8,187 64.4,182.8 						"/>
					</defs>
					<clipPath id="SVGID_16_">
						<use xlink:href="#SVGID_15_"  style="overflow:visible;"/>
					</clipPath>
					<rect x="66.8" y="13" class="st7" width="5.1" height="174"/>
				</g>
				<g>
					<defs>
						<polygon id="SVGID_17_" points="48.5,170.3 39.4,148.6 36.4,100 39.4,51.5 48.5,29.8 64.4,17.3 99.8,13 135.1,17.3 151,29.8 
							160,51.5 163.2,100 160,148.6 151,170.3 135.1,182.8 99.8,187 64.4,182.8 						"/>
					</defs>
					<clipPath id="SVGID_18_">
						<use xlink:href="#SVGID_17_"  style="overflow:visible;"/>
					</clipPath>
					<rect x="71.8" y="13" class="st8" width="5.1" height="174"/>
				</g>
				<g>
					<defs>
						<polygon id="SVGID_19_" points="48.5,170.3 39.4,148.6 36.4,100 39.4,51.5 48.5,29.8 64.4,17.3 99.8,13 135.1,17.3 151,29.8 
							160,51.5 163.2,100 160,148.6 151,170.3 135.1,182.8 99.8,187 64.4,182.8 						"/>
					</defs>
					<clipPath id="SVGID_20_">
						<use xlink:href="#SVGID_19_"  style="overflow:visible;"/>
					</clipPath>
					<rect x="76.9" y="13" class="st9" width="5.1" height="174"/>
				</g>
				<g>
					<defs>
						<polygon id="SVGID_21_" points="48.5,170.3 39.4,148.6 36.4,100 39.4,51.5 48.5,29.8 64.4,17.3 99.8,13 135.1,17.3 151,29.8 
							160,51.5 163.2,100 160,148.6 151,170.3 135.1,182.8 99.8,187 64.4,182.8 						"/>
					</defs>
					<clipPath id="SVGID_22_">
						<use xlink:href="#SVGID_21_"  style="overflow:visible;"/>
					</clipPath>
					<rect x="82" y="13" class="st10" width="5.1" height="174"/>
				</g>
				<g>
					<defs>
						<polygon id="SVGID_23_" points="48.5,170.3 39.4,148.6 36.4,100 39.4,51.5 48.5,29.8 64.4,17.3 99.8,13 135.1,17.3 151,29.8 
							160,51.5 163.2,100 160,148.6 151,170.3 135.1,182.8 99.8,187 64.4,182.8 						"/>
					</defs>
					<clipPath id="SVGID_24_">
						<use xlink:href="#SVGID_23_"  style="overflow:visible;"/>
					</clipPath>
					<rect x="87" y="13" class="st11" width="5.1" height="174"/>
				</g>
				<g>
					<defs>
						<polygon id="SVGID_25_" points="48.5,170.3 39.4,148.6 36.4,100 39.4,51.5 48.5,29.8 64.4,17.3 99.8,13 135.1,17.3 151,29.8 
							160,51.5 163.2,100 160,148.6 151,170.3 135.1,182.8 99.8,187 64.4,182.8 						"/>
					</defs>
					<clipPath id="SVGID_26_">
						<use xlink:href="#SVGID_25_"  style="overflow:visible;"/>
					</clipPath>
					<rect x="92.1" y="13" class="st12" width="5.1" height="174"/>
				</g>
				<g>
					<defs>
						<polygon id="SVGID_27_" points="48.5,170.3 39.4,148.6 36.4,100 39.4,51.5 48.5,29.8 64.4,17.3 99.8,13 135.1,17.3 151,29.8 
							160,51.5 163.2,100 160,148.6 151,170.3 135.1,182.8 99.8,187 64.4,182.8 						"/>
					</defs>
					<clipPath id="SVGID_28_">
						<use xlink:href="#SVGID_27_"  style="overflow:visible;"/>
					</clipPath>
					<rect x="97.2" y="13" class="st13" width="5.1" height="174"/>
				</g>
				<g>
					<defs>
						<polygon id="SVGID_29_" points="48.5,170.3 39.4,148.6 36.4,100 39.4,51.5 48.5,29.8 64.4,17.3 99.8,13 135.1,17.3 151,29.8 
							160,51.5 163.2,100 160,148.6 151,170.3 135.1,182.8 99.8,187 64.4,182.8 						"/>
					</defs>
					<clipPath id="SVGID_30_">
						<use xlink:href="#SVGID_29_"  style="overflow:visible;"/>
					</clipPath>
					<rect x="102.3" y="13" class="st14" width="5.1" height="174"/>
				</g>
				<g>
					<defs>
						<polygon id="SVGID_31_" points="48.5,170.3 39.4,148.6 36.4,100 39.4,51.5 48.5,29.8 64.4,17.3 99.8,13 135.1,17.3 151,29.8 
							160,51.5 163.2,100 160,148.6 151,170.3 135.1,182.8 99.8,187 64.4,182.8 						"/>
					</defs>
					<clipPath id="SVGID_32_">
						<use xlink:href="#SVGID_31_"  style="overflow:visible;"/>
					</clipPath>
					<rect x="107.3" y="13" class="st15" width="5.1" height="174"/>
				</g>
				<g>
					<defs>
						<polygon id="SVGID_33_" points="48.5,170.3 39.4,148.6 36.4,100 39.4,51.5 48.5,29.8 64.4,17.3 99.8,13 135.1,17.3 151,29.8 
							160,51.5 163.2,100 160,148.6 151,170.3 135.1,182.8 99.8,187 64.4,182.8 						"/>
					</defs>
					<clipPath id="SVGID_34_">
						<use xlink:href="#SVGID_33_"  style="overflow:visible;"/>
					</clipPath>
					<rect x="112.4" y="13" class="st16" width="5.1" height="174"/>
				</g>
				<g>
					<defs>
						<polygon id="SVGID_35_" points="48.5,170.3 39.4,148.6 36.4,100 39.4,51.5 48.5,29.8 64.4,17.3 99.8,13 135.1,17.3 151,29.8 
							160,51.5 163.2,100 160,148.6 151,170.3 135.1,182.8 99.8,187 64.4,182.8 						"/>
					</defs>
					<clipPath id="SVGID_36_">
						<use xlink:href="#SVGID_35_"  style="overflow:visible;"/>
					</clipPath>
					<rect x="117.5" y="13" class="st17" width="5.1" height="174"/>
				</g>
				<g>
					<defs>
						<polygon id="SVGID_37_" points="48.5,170.3 39.4,148.6 36.4,100 39.4,51.5 48.5,29.8 64.4,17.3 99.8,13 135.1,17.3 151,29.8 
							160,51.5 163.2,100 160,148.6 151,170.3 135.1,182.8 99.8,187 64.4,182.8 						"/>
					</defs>
					<clipPath id="SVGID_38_">
						<use xlink:href="#SVGID_37_"  style="overflow:visible;"/>
					</clipPath>
					<rect x="122.5" y="13" class="st18" width="5.1" height="174"/>
				</g>
				<g>
					<defs>
						<polygon id="SVGID_39_" points="48.5,170.3 39.4,148.6 36.4,100 39.4,51.5 48.5,29.8 64.4,17.3 99.8,13 135.1,17.3 151,29.8 
							160,51.5 163.2,100 160,148.6 151,170.3 135.1,182.8 99.8,187 64.4,182.8 						"/>
					</defs>
					<clipPath id="SVGID_40_">
						<use xlink:href="#SVGID_39_"  style="overflow:visible;"/>
					</clipPath>
					<rect x="127.6" y="13" class="st19" width="5.1" height="174"/>
				</g>
				<g>
					<defs>
						<polygon id="SVGID_41_" points="48.5,170.3 39.4,148.6 36.4,100 39.4,51.5 48.5,29.8 64.4,17.3 99.8,13 135.1,17.3 151,29.8 
							160,51.5 163.2,100 160,148.6 151,170.3 135.1,182.8 99.8,187 64.4,182.8 						"/>
					</defs>
					<clipPath id="SVGID_42_">
						<use xlink:href="#SVGID_41_"  style="overflow:visible;"/>
					</clipPath>
					<rect x="132.7" y="13" class="st20" width="5.1" height="174"/>
				</g>
				<g>
					<defs>
						<polygon id="SVGID_43_" points="48.5,170.3 39.4,148.6 36.4,100 39.4,51.5 48.5,29.8 64.4,17.3 99.8,13 135.1,17.3 151,29.8 
							160,51.5 163.2,100 160,148.6 151,170.3 135.1,182.8 99.8,187 64.4,182.8 						"/>
					</defs>
					<clipPath id="SVGID_44_">
						<use xlink:href="#SVGID_43_"  style="overflow:visible;"/>
					</clipPath>
					<rect x="137.7" y="13" class="st21" width="5.1" height="174"/>
				</g>
				<g>
					<defs>
						<polygon id="SVGID_45_" points="48.5,170.3 39.4,148.6 36.4,100 39.4,51.5 48.5,29.8 64.4,17.3 99.8,13 135.1,17.3 151,29.8 
							160,51.5 163.2,100 160,148.6 151,170.3 135.1,182.8 99.8,187 64.4,182.8 						"/>
					</defs>
					<clipPath id="SVGID_46_">
						<use xlink:href="#SVGID_45_"  style="overflow:visible;"/>
					</clipPath>
					<rect x="142.9" y="13" class="st22" width="5.1" height="174"/>
				</g>
				<g>
					<defs>
						<polygon id="SVGID_47_" points="48.5,170.3 39.4,148.6 36.4,100 39.4,51.5 48.5,29.8 64.4,17.3 99.8,13 135.1,17.3 151,29.8 
							160,51.5 163.2,100 160,148.6 151,170.3 135.1,182.8 99.8,187 64.4,182.8 						"/>
					</defs>
					<clipPath id="SVGID_48_">
						<use xlink:href="#SVGID_47_"  style="overflow:visible;"/>
					</clipPath>
					<rect x="148" y="13" class="st23" width="5.1" height="174"/>
				</g>
				<g>
					<defs>
						<polygon id="SVGID_49_" points="48.5,170.3 39.4,148.6 36.4,100 39.4,51.5 48.5,29.8 64.4,17.3 99.8,13 135.1,17.3 151,29.8 
							160,51.5 163.2,100 160,148.6 151,170.3 135.1,182.8 99.8,187 64.4,182.8 						"/>
					</defs>
					<clipPath id="SVGID_50_">
						<use xlink:href="#SVGID_49_"  style="overflow:visible;"/>
					</clipPath>
					<rect x="153" y="13" class="st24" width="5.1" height="174"/>
				</g>
				<g>
					<defs>
						<polygon id="SVGID_51_" points="48.5,170.3 39.4,148.6 36.4,100 39.4,51.5 48.5,29.8 64.4,17.3 99.8,13 135.1,17.3 151,29.8 
							160,51.5 163.2,100 160,148.6 151,170.3 135.1,182.8 99.8,187 64.4,182.8 						"/>
					</defs>
					<clipPath id="SVGID_52_">
						<use xlink:href="#SVGID_51_"  style="overflow:visible;"/>
					</clipPath>
					<rect x="158.1" y="13" class="st25" width="5.1" height="174"/>
				</g>
				<g>
					<defs>
						<polygon id="SVGID_53_" points="48.5,170.3 39.4,148.6 36.4,100 39.4,51.5 48.5,29.8 64.4,17.3 99.8,13 135.1,17.3 151,29.8 
							160,51.5 163.2,100 160,148.6 151,170.3 135.1,182.8 99.8,187 64.4,182.8 						"/>
					</defs>
					<clipPath id="SVGID_54_">
						<use xlink:href="#SVGID_53_"  style="overflow:visible;"/>
					</clipPath>
				</g>
			</g>
		</g>
		<g>
			<g>
				<path class="st27" d="M99.8,188.4L99.8,188.4l-35.5-4.2c-0.2,0-0.3-0.1-0.4-0.2L48,171.6c-0.2-0.1-0.3-0.4-0.3-0.5l-9-21.7
					c-0.1-0.2-0.1-0.4-0.2-0.6l-3.1-48.6c0-0.1,0-0.1,0-0.2l3.1-48.7c0-0.2,0.1-0.4,0.2-0.6l9-21.8c0.1-0.2,0.3-0.4,0.3-0.5
					l15.9-12.4c0.2-0.1,0.3-0.1,0.4-0.2l35.4-4.2c0.1,0,0.1,0,0.2,0l35.4,4.2c0.2,0,0.3,0.1,0.4,0.2l15.9,12.4
					c0.2,0.1,0.3,0.4,0.3,0.5l9,21.8c0.1,0.2,0.1,0.4,0.2,0.6l3.1,48.6c0,0.1,0,0.1,0,0.2l-3.1,48.6c0,0.2-0.1,0.4-0.2,0.6l-9,21.7
					c-0.1,0.2-0.3,0.4-0.3,0.5l-15.9,12.4c-0.2,0.1-0.3,0.1-0.4,0.2l-35.4,4.2C99.8,188.4,99.8,188.4,99.8,188.4z M64.6,181.4
					l35.1,4.2l35.1-4.2l15.4-12.1l8.8-21.1l3.1-48.1L159,51.9l-8.8-21.1l-15.4-12.1l-35.1-4.2l-35.1,4.2l-15.4,12l-8.8,21.2
					L37.4,100l3.1,48.1l8.8,21.1L64.6,181.4z"/>
			</g>
			<g>
				<g>
					<path class="st27" d="M99.8,55.1c-0.2,0-0.3,0-0.4-0.1l-31-20.4c-0.3-0.2-0.6-0.7-0.6-1.3c0-0.6,0.3-1.1,0.6-1.3l30.9-20.3
						c0.3-0.2,0.6-0.2,0.9,0l31,20.3c0.3,0.2,0.6,0.7,0.6,1.3c0,0.6-0.3,1.1-0.6,1.3l-31,20.3C100,55,99.8,55.1,99.8,55.1z
						 M71.1,33.3l28.6,18.7l28.6-18.7L99.8,14.6L71.1,33.3z"/>
				</g>
			</g>
			<g>
				<g>
					<path class="st27" d="M99.8,188.4c-0.2,0-0.3,0-0.4-0.1l-31-20.4c-0.3-0.2-0.6-0.7-0.6-1.3c0-0.6,0.3-1.1,0.6-1.3l31-20.3
						c0.3-0.2,0.6-0.2,0.9,0l31,20.3c0.3,0.2,0.6,0.7,0.6,1.3c0,0.6-0.3,1.1-0.6,1.3l-31,20.3C100,188.4,99.8,188.4,99.8,188.4z
						 M71.1,166.7l28.6,18.7l28.6-18.7L99.8,148L71.1,166.7z"/>
				</g>
			</g>
			<g>
				<g>
					<path class="st27" d="M148.3,144c-0.4,0-0.8-0.4-0.9-0.8l-14.8-42.6c-0.2-0.4-0.2-0.8,0-1.2l14.8-42.6c0.2-0.5,0.5-0.8,0.9-0.8
						c0.4,0,0.8,0.4,0.9,0.8L164,99.4c0.2,0.4,0.2,0.8,0,1.2l-14.8,42.6C149.1,143.6,148.7,144,148.3,144z M134.6,100l13.7,39.3
						L162,100l-13.7-39.3L134.6,100z"/>
				</g>
			</g>
			<g>
				<g>
					<path class="st27" d="M70.4,61.2L70.4,61.2L51,58.9c-0.5,0-0.9-0.6-0.9-1.2l-2.7-27.8c0-0.5,0.1-0.8,0.3-1.2
						c0.3-0.4,0.5-0.5,0.9-0.4L68.8,32c0.5,0.1,0.9,0.6,0.9,1.3l1.7,26.4c0,0.5-0.1,0.8-0.3,1.2C71,61.1,70.7,61.2,70.4,61.2z
						 M52.1,56.2l17.3,2l-1.5-23.7l-18.1-3.2L52.1,56.2z"/>
				</g>
			</g>
			<g>
				<g>
					<path class="st27" d="M129.1,61.2c-0.3,0-0.5-0.1-0.7-0.5c-0.3-0.4-0.3-0.7-0.3-1.2l1.7-26.4c0-0.7,0.4-1.2,0.9-1.3l20.3-3.7
						c0.3,0,0.6,0.1,0.9,0.4c0.3,0.4,0.3,0.7,0.3,1.2l-2.7,27.8c-0.1,0.7-0.4,1.2-0.9,1.2l-19.2,2.4
						C129.1,61.2,129.1,61.2,129.1,61.2z M131.7,34.6l-1.5,23.7l17.3-2l2.3-24.9L131.7,34.6z"/>
				</g>
			</g>
			<g>
				<g>
					<path class="st27" d="M151,171.7c-0.1,0-0.1,0-0.2,0l-20.3-3.7c-0.5-0.1-0.9-0.6-0.9-1.3l-1.7-26.4c0-0.5,0.1-0.8,0.3-1.1
						c0.2-0.4,0.5-0.5,0.8-0.4l19.2,2.4c0.5,0,0.9,0.6,0.9,1.2l2.7,27.8c0,0.5-0.1,0.8-0.3,1.2C151.5,171.6,151.2,171.7,151,171.7z
						 M131.7,165.4l18.1,3.2l-2.3-24.9l-17.3-2L131.7,165.4z"/>
				</g>
			</g>
			<g>
				<g>
					<path class="st27" d="M48.5,171.7c-0.3,0-0.5-0.1-0.7-0.5c-0.3-0.4-0.3-0.7-0.3-1.2l2.7-27.8c0.1-0.7,0.4-1.2,0.9-1.2l19.2-2.4
						c0.3,0,0.6,0.1,0.9,0.4c0.3,0.2,0.3,0.7,0.3,1.1l-1.7,26.4c0,0.7-0.4,1.2-0.9,1.3l-20.3,3.7C48.6,171.7,48.6,171.7,48.5,171.7z
						 M52.1,143.9l-2.3,24.9l18.1-3.2l1.5-23.7L52.1,143.9z"/>
				</g>
			</g>
			<g>
				<g>
					<path class="st27" d="M51.1,144c-0.4,0-0.8-0.4-0.9-0.8l-14.8-42.6c-0.2-0.4-0.2-0.8,0-1.2l14.8-42.6c0.2-0.5,0.5-0.8,0.9-0.8
						c0.4,0,0.8,0.4,0.9,0.8l14.8,42.6c0.2,0.4,0.2,0.8,0,1.2l-14.8,42.6C51.9,143.6,51.6,144,51.1,144z M37.5,100l13.7,39.3
						L64.8,100L51.1,60.8L37.5,100z"/>
				</g>
			</g>
			<g>
				<path class="st27" d="M99.8,147.8c-0.1,0-0.1,0-0.2,0l-29.3-6.1c-0.4-0.1-0.8-0.6-0.9-1.2L65,100.3c0-0.1,0-0.2,0-0.5l4.5-40.2
					c0.1-0.6,0.4-1.1,0.9-1.2l29.3-6.1c0.1,0,0.2,0,0.3,0l29.3,6.1c0.4,0.1,0.8,0.6,0.9,1.2l4.5,40.2c0,0.1,0,0.2,0,0.5l-4.5,40.2
					c-0.1,0.6-0.4,1.1-0.9,1.2l-29.3,6.1C99.8,147.8,99.8,147.8,99.8,147.8z M71.3,139l28.4,5.9l28.4-5.9l4.3-39l-4.3-39l-28.4-5.9
					L71.3,61L67,100L71.3,139z"/>
			</g>
		</g>
	</g>
</g>
<g id="Layer_2" class="st28">
</g>
</svg>
