<?xml version="1.0" encoding="utf-8"?>
<!-- Generator: Adobe Illustrator 22.1.0, SVG Export Plug-In . SVG Version: 6.00 Build 0)  -->
<svg version="1.1" id="Layer_1" xmlns="http://www.w3.org/2000/svg" xmlns:xlink="http://www.w3.org/1999/xlink" x="0px" y="0px"
	 viewBox="0 0 200 200" style="enable-background:new 0 0 200 200;" xml:space="preserve">
<style type="text/css">
	.st0{clip-path:url(#SVGID_2_);fill:#FFFFFF;}
	.st1{clip-path:url(#SVGID_2_);fill:#FEFEFE;}
	.st2{clip-path:url(#SVGID_2_);fill:#FDFDFD;}
	.st3{clip-path:url(#SVGID_2_);fill:#FCFCFD;}
	.st4{clip-path:url(#SVGID_2_);fill:#FCFCFC;}
	.st5{clip-path:url(#SVGID_2_);fill:#FBFBFB;}
	.st6{clip-path:url(#SVGID_2_);fill:#FAFAFA;}
	.st7{clip-path:url(#SVGID_2_);fill:#F9F9F9;}
	.st8{clip-path:url(#SVGID_2_);fill:#F8F8F8;}
	.st9{clip-path:url(#SVGID_2_);fill:#F6F7F7;}
	.st10{clip-path:url(#SVGID_2_);fill:#F5F5F6;}
	.st11{clip-path:url(#SVGID_2_);fill:#F3F4F4;}
	.st12{clip-path:url(#SVGID_2_);fill:#F1F2F2;}
	.st13{clip-path:url(#SVGID_2_);fill:#EFF0F1;}
	.st14{clip-path:url(#SVGID_2_);fill:#EDEEEF;}
	.st15{clip-path:url(#SVGID_2_);fill:#EBECED;}
	.st16{clip-path:url(#SVGID_2_);fill:#E9E9EA;}
	.st17{clip-path:url(#SVGID_2_);fill:#E6E7E8;}
	.st18{clip-path:url(#SVGID_4_);fill:#FFFFFF;}
	.st19{clip-path:url(#SVGID_4_);fill:#FEFEFE;}
	.st20{clip-path:url(#SVGID_4_);fill:#FDFDFD;}
	.st21{clip-path:url(#SVGID_4_);fill:#FCFCFD;}
	.st22{clip-path:url(#SVGID_4_);fill:#FCFCFC;}
	.st23{clip-path:url(#SVGID_4_);fill:#FBFBFB;}
	.st24{clip-path:url(#SVGID_4_);fill:#FAFAFA;}
	.st25{clip-path:url(#SVGID_4_);fill:#F9F9F9;}
	.st26{clip-path:url(#SVGID_4_);fill:#F8F8F8;}
	.st27{clip-path:url(#SVGID_4_);fill:#F6F7F7;}
	.st28{clip-path:url(#SVGID_4_);fill:#F5F5F6;}
	.st29{clip-path:url(#SVGID_4_);fill:#F3F4F4;}
	.st30{clip-path:url(#SVGID_4_);fill:#F1F2F2;}
	.st31{clip-path:url(#SVGID_4_);fill:#EFF0F1;}
	.st32{clip-path:url(#SVGID_4_);fill:#EDEEEF;}
	.st33{clip-path:url(#SVGID_4_);fill:#EBECED;}
	.st34{clip-path:url(#SVGID_4_);fill:#E9E9EA;}
	.st35{clip-path:url(#SVGID_4_);fill:#E6E7E8;}
	.st36{fill:#929497;}
	.st37{fill:#D0D2D3;}
</style>
<g>
	<g>
		<g>
			<g>
				<defs>
					<polygon id="SVGID_1_" points="156.4,42.3 140.2,26 59.8,26 43.6,42.3 43.6,157.7 59.8,174 140.2,174 156.4,157.7 					"/>
				</defs>
				<clipPath id="SVGID_2_">
					<use xlink:href="#SVGID_1_"  style="overflow:visible;"/>
				</clipPath>
				<path class="st0" d="M43.6,174h112.8H43.6z"/>
				<rect x="43.6" y="168" class="st0" width="112.8" height="5.9"/>
				<rect x="43.6" y="162.1" class="st0" width="112.8" height="5.9"/>
				<rect x="43.6" y="156.2" class="st0" width="112.8" height="5.9"/>
				<rect x="43.6" y="150.3" class="st0" width="112.8" height="5.9"/>
				<rect x="43.6" y="144.4" class="st0" width="112.8" height="5.9"/>
				<rect x="43.6" y="138.5" class="st0" width="112.8" height="5.9"/>
				<rect x="43.6" y="132.5" class="st1" width="112.8" height="5.9"/>
				<rect x="43.6" y="126.6" class="st1" width="112.8" height="5.9"/>
				<rect x="43.6" y="120.7" class="st1" width="112.8" height="5.9"/>
				<rect x="43.6" y="114.8" class="st2" width="112.8" height="5.9"/>
				<rect x="43.6" y="108.9" class="st3" width="112.8" height="5.9"/>
				<rect x="43.6" y="103" class="st4" width="112.8" height="5.9"/>
				<rect x="43.6" y="97" class="st5" width="112.8" height="5.9"/>
				<rect x="43.6" y="91.1" class="st6" width="112.8" height="5.9"/>
				<rect x="43.6" y="85.2" class="st7" width="112.8" height="5.9"/>
				<rect x="43.6" y="79.3" class="st8" width="112.8" height="5.9"/>
				<rect x="43.6" y="73.4" class="st9" width="112.8" height="5.9"/>
				<rect x="43.6" y="67.5" class="st10" width="112.8" height="5.9"/>
				<rect x="43.6" y="61.5" class="st11" width="112.8" height="5.9"/>
				<rect x="43.6" y="55.6" class="st12" width="112.8" height="5.9"/>
				<rect x="43.6" y="49.7" class="st13" width="112.8" height="5.9"/>
				<rect x="43.6" y="43.8" class="st14" width="112.8" height="5.9"/>
				<rect x="43.6" y="37.9" class="st15" width="112.8" height="5.9"/>
				<rect x="43.6" y="32" class="st16" width="112.8" height="5.9"/>
				<rect x="43.6" y="26" class="st17" width="112.8" height="5.9"/>
				<path class="st17" d="M156.4,26H43.6H156.4z"/>
			</g>
		</g>
		<g>
			<g>
				<defs>
					<polygon id="SVGID_3_" points="156.4,42.3 140.2,26 59.8,26 43.6,42.3 43.6,157.7 59.8,174 140.2,174 156.4,157.7 					"/>
				</defs>
				<clipPath id="SVGID_4_">
					<use xlink:href="#SVGID_3_"  style="overflow:visible;"/>
				</clipPath>
				<path class="st18" d="M43.6,174h112.8H43.6z"/>
				<rect x="43.6" y="168" class="st18" width="112.8" height="5.9"/>
				<rect x="43.6" y="162.1" class="st18" width="112.8" height="5.9"/>
				<rect x="43.6" y="156.2" class="st18" width="112.8" height="5.9"/>
				<rect x="43.6" y="150.3" class="st18" width="112.8" height="5.9"/>
				<rect x="43.6" y="144.4" class="st18" width="112.8" height="5.9"/>
				<rect x="43.6" y="138.5" class="st18" width="112.8" height="5.9"/>
				<rect x="43.6" y="132.5" class="st19" width="112.8" height="5.9"/>
				<rect x="43.6" y="126.6" class="st19" width="112.8" height="5.9"/>
				<rect x="43.6" y="120.7" class="st19" width="112.8" height="5.9"/>
				<rect x="43.6" y="114.8" class="st20" width="112.8" height="5.9"/>
				<rect x="43.6" y="108.9" class="st21" width="112.8" height="5.9"/>
				<rect x="43.6" y="103" class="st22" width="112.8" height="5.9"/>
				<rect x="43.6" y="97" class="st23" width="112.8" height="5.9"/>
				<rect x="43.6" y="91.1" class="st24" width="112.8" height="5.9"/>
				<rect x="43.6" y="85.2" class="st25" width="112.8" height="5.9"/>
				<rect x="43.6" y="79.3" class="st26" width="112.8" height="5.9"/>
				<rect x="43.6" y="73.4" class="st27" width="112.8" height="5.9"/>
				<rect x="43.6" y="67.5" class="st28" width="112.8" height="5.9"/>
				<rect x="43.6" y="61.5" class="st29" width="112.8" height="5.9"/>
				<rect x="43.6" y="55.6" class="st30" width="112.8" height="5.9"/>
				<rect x="43.6" y="49.7" class="st31" width="112.8" height="5.9"/>
				<rect x="43.6" y="43.8" class="st32" width="112.8" height="5.9"/>
				<rect x="43.6" y="37.9" class="st33" width="112.8" height="5.9"/>
				<rect x="43.6" y="32" class="st34" width="112.8" height="5.9"/>
				<rect x="43.6" y="26" class="st35" width="112.8" height="5.9"/>
				<path class="st35" d="M156.4,26H43.6H156.4z"/>
			</g>
			<path class="st36" d="M157.5,42.3v115.4c0,0.3-0.1,0.5-0.3,0.7l-16.2,16.2c-0.2,0.2-0.5,0.3-0.7,0.3H59.8c-0.3,0-0.5-0.1-0.7-0.3
				l-16.2-16.2c-0.2-0.2-0.3-0.5-0.3-0.7V42.3c0-0.3,0.1-0.5,0.3-0.7l16.2-16.2c0.2-0.2,0.5-0.3,0.7-0.3h80.3c0.3,0,0.5,0.1,0.7,0.3
				l16.2,16.2C157.3,41.7,157.5,42,157.5,42.3z M155.4,157.3V42.7l-15.6-15.6H60.3L44.6,42.7v114.6l15.6,15.6h79.5L155.4,157.3z"/>
		</g>
		<g>
			<path class="st36" d="M151.6,45.8v108.5c0,0.3-0.1,0.6-0.3,0.8l-15.2,13.8c-0.2,0.2-0.4,0.3-0.7,0.3H64.6c-0.3,0-0.5-0.1-0.7-0.3
				L48.7,155c-0.2-0.2-0.3-0.5-0.3-0.8V45.8c0-0.3,0.1-0.6,0.3-0.8l15.2-13.8c0.2-0.2,0.4-0.3,0.7-0.3h70.9c0.3,0,0.5,0.1,0.7,0.3
				L151.3,45C151.5,45.2,151.6,45.5,151.6,45.8z M149.6,153.8V46.2L135,33H65L50.4,46.2v107.6L65,167H135L149.6,153.8z"/>
		</g>
		<g>
			<path class="st36" d="M145.8,49.2v101.5c0,0.3-0.1,0.6-0.4,0.8L131.4,163c-0.2,0.1-0.4,0.2-0.7,0.2H69.3c-0.2,0-0.5-0.1-0.7-0.2
				l-14.1-11.4c-0.2-0.2-0.4-0.5-0.4-0.8V49.2c0-0.3,0.1-0.6,0.4-0.8L68.6,37c0.2-0.1,0.4-0.2,0.7-0.2h61.4c0.2,0,0.5,0.1,0.7,0.2
				l14.1,11.4C145.7,48.6,145.8,48.9,145.8,49.2z M143.8,150.3V49.7l-13.4-10.9H69.7L56.2,49.7v100.5l13.4,10.9h60.7L143.8,150.3z"
				/>
		</g>
		<g>
			<path class="st36" d="M140,52.7v94.6c0,0.3-0.2,0.7-0.4,0.9l-13,9c-0.2,0.1-0.4,0.2-0.6,0.2H74c-0.2,0-0.4-0.1-0.6-0.2l-13-9
				c-0.3-0.2-0.4-0.5-0.4-0.9V52.7c0-0.3,0.2-0.7,0.4-0.9l13-9c0.2-0.1,0.4-0.2,0.6-0.2H126c0.2,0,0.4,0.1,0.6,0.2l13,9
				C139.9,52.1,140,52.4,140,52.7z M138,146.7V53.3l-12.3-8.5H74.4L62,53.3v93.5l12.3,8.5h51.3L138,146.7z"/>
		</g>
		<g>
			<path class="st37" d="M156.9,42.3C156.9,42.3,156.9,42.3,156.9,42.3c0,0.2-0.1,0.4-0.3,0.4l-56.4,33.8c-0.1,0-0.1,0.1-0.2,0.1
				l0,0c0,0,0,0,0,0l0,0c0,0,0,0,0,0l0,0c0,0,0,0,0,0l0,0c0,0,0,0,0,0c0,0,0,0,0,0c0,0,0,0,0,0c0,0,0,0,0,0c0,0,0,0,0,0c0,0,0,0,0,0
				c0,0,0,0,0,0c0,0,0,0,0,0l0,0c0,0,0,0,0,0l0,0c0,0,0,0,0,0c0,0,0,0,0,0h0c0,0,0,0,0,0h0h0l0,0c0,0,0,0,0,0c0,0,0,0,0,0l0,0
				c0,0,0,0,0,0l0,0c0,0,0,0,0,0l0,0c0,0,0,0,0,0l0,0c0,0,0,0,0,0l0,0c0,0,0,0,0,0l0,0c0,0,0,0,0,0l0,0c0,0,0,0,0,0l0,0c0,0,0,0,0,0
				c0,0,0,0,0,0h0h0h0c0,0,0,0,0,0h0c0,0,0,0,0,0h0c0,0,0,0,0,0c0,0,0,0,0,0l0,0c0,0,0,0,0,0c0,0,0,0,0,0h0h0h0h0h0h0h0h0
				c0,0,0,0,0,0l0,0c0,0,0,0,0,0c0,0,0,0,0,0c0,0,0,0,0,0c0,0,0,0,0,0c0,0,0,0,0,0c0,0,0,0,0,0c0,0,0,0,0,0c0,0,0,0,0,0c0,0,0,0,0,0
				c0,0,0,0,0,0h0c0,0,0,0,0,0c0,0,0,0,0,0c0,0,0,0,0,0c0,0,0,0,0,0c0,0,0,0,0,0c0,0,0,0,0,0c0,0,0,0,0,0c0,0,0,0,0,0c0,0,0,0,0,0
				c0,0,0,0,0,0c0,0,0,0,0,0l0,0c0,0,0,0,0,0h0h0h0h0c-0.1,0-0.2,0-0.2-0.1L43.3,42.7c-0.1-0.1-0.2-0.2-0.3-0.4c0-0.2,0-0.3,0.1-0.4
				l16.2-16.2c0.1-0.1,0.2-0.2,0.4-0.2c0.1,0,0.3,0.1,0.4,0.2L100,75.2l39.8-49.5c0.1-0.1,0.2-0.2,0.4-0.2c0.1,0,0.3,0,0.4,0.2
				l16.2,16.2C156.9,42,156.9,42.1,156.9,42.3z M102.2,74.1l53.3-31.9l-15.4-15.4L102.2,74.1z M44.4,42.2l53.3,31.9l-38-47.3
				L44.4,42.2z"/>
		</g>
		<g>
			<path class="st37" d="M156.9,157.7c0,0.1-0.1,0.3-0.2,0.4l-16.2,16.2c-0.1,0.1-0.3,0.2-0.4,0.2c-0.1,0-0.3-0.1-0.4-0.2L100,124.8
				l-39.8,49.5c-0.1,0.1-0.2,0.2-0.4,0.2c-0.1,0-0.3,0-0.4-0.2l-16.2-16.2c-0.1-0.1-0.2-0.3-0.1-0.4c0-0.2,0.1-0.3,0.3-0.4
				l56.4-33.8c0.1,0,0.1-0.1,0.2-0.1h0l0,0c0,0,0,0,0,0h0c0,0,0,0,0,0h0l0,0c0,0,0,0,0,0c0,0,0,0,0,0c0,0,0,0,0,0c0,0,0,0,0,0
				c0,0,0,0,0,0c0,0,0,0,0,0c0,0,0,0,0,0c0,0,0,0,0,0c0,0,0,0,0,0h0c0,0,0,0,0,0c0,0,0,0,0,0c0,0,0,0,0,0c0,0,0,0,0,0c0,0,0,0,0,0
				c0,0,0,0,0,0c0,0,0,0,0,0c0,0,0,0,0,0c0,0,0,0,0,0c0,0,0,0,0,0l0,0c0,0,0,0,0,0h0h0h0h0h0h0h0h0c0,0,0,0,0,0c0,0,0,0,0,0l0,0l0,0
				c0,0,0,0,0,0c0,0,0,0,0,0h0c0,0,0,0,0,0h0c0,0,0,0,0,0h0h0h0c0,0,0,0,0,0c0,0,0,0,0,0l0,0c0,0,0,0,0,0l0,0c0,0,0,0,0,0l0,0
				c0,0,0,0,0,0l0,0c0,0,0,0,0,0c0,0,0,0,0,0s0,0,0,0l0,0c0,0,0,0,0,0l0,0c0,0,0,0,0,0l0,0c0,0,0,0,0,0h0h0h0h0c0,0,0,0,0,0h0
				c0,0,0,0,0,0s0,0,0,0l0,0c0,0,0,0,0,0c0,0,0,0,0,0c0,0,0,0,0,0h0c0,0,0,0,0,0c0,0,0,0,0,0c0,0,0,0,0,0l0,0c0.1,0,0.1,0,0.2,0.1
				l56.4,33.8C156.8,157.4,156.9,157.5,156.9,157.7C156.9,157.7,156.9,157.7,156.9,157.7z M140.2,173.2l15.4-15.4l-53.3-31.9
				L140.2,173.2z M59.8,173.2l38-47.3l-53.3,31.9L59.8,173.2z"/>
		</g>
		<g>
			<polygon class="st37" points="100.5,123.9 99.5,123.9 99.5,76.1 100.5,76.1 100.5,123.9 			"/>
		</g>
	</g>
	<g>
		<path class="st36" d="M75.1,156.3c0,0.2-0.1,0.5-0.2,0.7l-14.2,17.7c-0.2,0.2-0.5,0.4-0.8,0.4c-0.3,0-0.6-0.1-0.8-0.3l-16.2-16.2
			c-0.2-0.2-0.3-0.5-0.3-0.9c0-0.3,0.2-0.6,0.5-0.8l17.4-10.4c0.3-0.2,0.8-0.2,1.1,0l13,9c0.2,0.2,0.4,0.4,0.4,0.7
			C75.1,156.2,75.1,156.2,75.1,156.3z M59.7,172.4l12.8-15.9l-11.6-8l-15.7,9.4L59.7,172.4z"/>
	</g>
	<g>
		<path class="st36" d="M75.1,43.7c0,0.1,0,0.1,0,0.2c0,0.3-0.2,0.5-0.4,0.7l-13,9c-0.3,0.2-0.8,0.2-1.1,0L43.1,43.2
			c-0.3-0.2-0.5-0.4-0.5-0.8c0-0.3,0.1-0.6,0.3-0.9l16.2-16.2c0.2-0.2,0.5-0.3,0.8-0.3c0.3,0,0.6,0.2,0.8,0.4l14.2,17.7
			C75,43.3,75.1,43.5,75.1,43.7z M61,51.5l11.6-8L59.7,27.6L45.3,42.1L61,51.5z"/>
	</g>
	<g>
		<path class="st36" d="M157.5,157.7c0,0.3-0.1,0.5-0.3,0.7l-16.2,16.2c-0.2,0.2-0.5,0.3-0.8,0.3c-0.3,0-0.6-0.2-0.8-0.4l-14.2-17.7
			c-0.2-0.2-0.3-0.5-0.2-0.8c0-0.3,0.2-0.5,0.4-0.7l13-9c0.3-0.2,0.8-0.2,1.1,0l17.4,10.4c0.3,0.2,0.5,0.4,0.5,0.8
			C157.4,157.6,157.5,157.7,157.5,157.7z M140.3,172.4l14.5-14.5l-15.7-9.4l-11.6,8L140.3,172.4z"/>
	</g>
	<g>
		<path class="st36" d="M157.5,42.3c0,0,0,0.1,0,0.1c0,0.3-0.2,0.6-0.5,0.8l-17.4,10.4c-0.3,0.2-0.8,0.2-1.1,0l-13-9
			c-0.2-0.2-0.4-0.4-0.4-0.7c0-0.3,0-0.6,0.2-0.8l14.2-17.7c0.2-0.2,0.5-0.4,0.8-0.4c0.3,0,0.6,0.1,0.8,0.3l16.2,16.2
			C157.3,41.7,157.5,42,157.5,42.3z M139,51.5l15.7-9.4l-14.5-14.5l-12.8,15.9L139,51.5z"/>
	</g>
</g>
</svg>
