<?xml version="1.0" encoding="utf-8"?>
<!-- Generator: Adobe Illustrator 22.1.0, SVG Export Plug-In . SVG Version: 6.00 Build 0)  -->
<svg version="1.1" id="Layer_1" xmlns="http://www.w3.org/2000/svg" xmlns:xlink="http://www.w3.org/1999/xlink" x="0px" y="0px"
	 viewBox="0 0 200 200" style="enable-background:new 0 0 200 200;" xml:space="preserve">
<style type="text/css">
	.st0{fill:#929497;}
	.st1{clip-path:url(#SVGID_2_);fill:#FFFFFF;}
	.st2{clip-path:url(#SVGID_2_);fill:#FEFEFE;}
	.st3{clip-path:url(#SVGID_2_);fill:#FDFDFD;}
	.st4{clip-path:url(#SVGID_2_);fill:#FCFCFD;}
	.st5{clip-path:url(#SVGID_2_);fill:#FCFCFC;}
	.st6{clip-path:url(#SVGID_2_);fill:#FBFBFB;}
	.st7{clip-path:url(#SVGID_2_);fill:#FAFAFA;}
	.st8{clip-path:url(#SVGID_2_);fill:#F9F9F9;}
	.st9{clip-path:url(#SVGID_2_);fill:#F8F8F8;}
	.st10{clip-path:url(#SVGID_2_);fill:#F6F7F7;}
	.st11{clip-path:url(#SVGID_2_);fill:#F5F5F6;}
	.st12{clip-path:url(#SVGID_2_);fill:#F3F4F4;}
	.st13{clip-path:url(#SVGID_2_);fill:#F1F2F2;}
	.st14{clip-path:url(#SVGID_2_);fill:#EFF0F1;}
	.st15{clip-path:url(#SVGID_2_);fill:#EDEEEF;}
	.st16{clip-path:url(#SVGID_2_);fill:#EBECED;}
	.st17{clip-path:url(#SVGID_2_);fill:#E9E9EA;}
	.st18{clip-path:url(#SVGID_2_);fill:#E6E7E8;}
</style>
<g>
	<g>
		<path class="st0" d="M175,69.9c0,1.7-0.1,3.4-0.2,5.3c-1.9,21-16.2,55.2-74.1,98.5c-0.4,0.3-1,0.3-1.4,0
			c-18.4-13.8-33.6-27.5-45.3-40.9c-13.7-15.8-22.7-31.2-26.7-45.9c-2.7-10-3.1-19.6-1.1-28.5l0,0c2.4-10.9,7.6-18.3,11.6-22.5
			c6.9-7.4,17.1-10.8,28.1-9.2c13.8,1.9,26.6,11.1,34.1,24.1c7.4-13,20.3-22.2,34.1-24.1c11-1.5,21.2,1.9,28.1,9.2
			C166.2,40.1,175,51.6,175,69.9z M100,171.2c56.5-42.5,70.6-75.8,72.4-96.2c1.8-20.4-7.7-33-11.9-37.5c-6.5-6.9-15.7-9.9-26.1-8.5
			c-13.7,1.9-26.5,11.4-33.4,24.8c-0.2,0.4-0.6,0.6-1.1,0.6c-0.4,0-0.8-0.2-1.1-0.6c-6.9-13.4-19.7-22.9-33.4-24.8
			c-10.4-1.4-19.6,1.6-26.1,8.5c-5.3,5.7-9.2,13.3-11,21.4l0,0c-1.9,8.6-1.5,17.8,1.1,27.4c3.9,14.3,12.7,29.5,26.2,45
			C67.2,144.2,82.1,157.7,100,171.2z"/>
	</g>
	<g>
		<g>
			<g>
				<defs>
					<path id="SVGID_1_" d="M27.4,58.5c-1.7,7.9-1.8,17.2,1.1,28C32,99.6,40,114.8,54.9,131.9c11,12.6,25.7,26.2,45.1,40.7
						c94-70.4,77.5-118.8,61.4-136.1c-16.1-17.3-48-9.4-61.3,16.5c-13.4-26-45.2-33.8-61.3-16.5C34.1,41.5,29.5,48.9,27.4,58.5z"/>
				</defs>
				<clipPath id="SVGID_2_">
					<use xlink:href="#SVGID_1_"  style="overflow:visible;"/>
				</clipPath>
				<path class="st1" d="M25.6,172.6H194H25.6z"/>
				<rect x="25.6" y="166.8" class="st1" width="168.4" height="5.8"/>
				<rect x="25.6" y="161" class="st1" width="168.4" height="5.8"/>
				<rect x="25.6" y="155.2" class="st1" width="168.4" height="5.8"/>
				<rect x="25.6" y="149.4" class="st1" width="168.4" height="5.8"/>
				<rect x="25.6" y="143.6" class="st1" width="168.4" height="5.8"/>
				<rect x="25.6" y="137.8" class="st1" width="168.4" height="5.8"/>
				<rect x="25.6" y="132" class="st2" width="168.4" height="5.8"/>
				<rect x="25.6" y="126.2" class="st2" width="168.4" height="5.8"/>
				<rect x="25.6" y="120.3" class="st2" width="168.4" height="5.8"/>
				<rect x="25.6" y="114.5" class="st3" width="168.4" height="5.8"/>
				<rect x="25.6" y="108.7" class="st4" width="168.4" height="5.8"/>
				<rect x="25.6" y="102.9" class="st5" width="168.4" height="5.8"/>
				<rect x="25.6" y="97.1" class="st6" width="168.4" height="5.8"/>
				<rect x="25.6" y="91.3" class="st7" width="168.4" height="5.8"/>
				<rect x="25.6" y="85.5" class="st8" width="168.4" height="5.8"/>
				<rect x="25.6" y="79.7" class="st9" width="168.4" height="5.8"/>
				<rect x="25.6" y="73.8" class="st10" width="168.4" height="5.8"/>
				<rect x="25.6" y="68" class="st11" width="168.4" height="5.8"/>
				<rect x="25.6" y="62.2" class="st12" width="168.4" height="5.8"/>
				<rect x="25.6" y="56.4" class="st13" width="168.4" height="5.8"/>
				<rect x="25.6" y="50.6" class="st14" width="168.4" height="5.8"/>
				<rect x="25.6" y="44.8" class="st15" width="168.4" height="5.8"/>
				<rect x="25.6" y="39" class="st16" width="168.4" height="5.8"/>
				<rect x="25.6" y="33.2" class="st17" width="168.4" height="5.8"/>
				<rect x="25.6" y="27.3" class="st18" width="168.4" height="5.8"/>
				<rect x="25.6" y="19.3" class="st18" width="168.4" height="8.1"/>
			</g>
		</g>
		<g>
			<path class="st0" d="M58.3,104.2C58.3,104.2,58.3,104.3,58.3,104.2L56.1,132c0,0.5-0.4,0.9-0.8,1c-0.5,0.1-0.9,0-1.3-0.3
				c-13.7-15.8-22.7-31.2-26.7-45.9c-0.1-0.5,0-1,0.4-1.3c0.4-0.3,0.9-0.3,1.3-0.1l28.6,17.7C58.1,103.4,58.3,103.8,58.3,104.2z
				 M54,129l1.9-24.2L30.5,89.1C34.5,101.9,42.4,115.3,54,129z"/>
		</g>
		<g>
			<path class="st0" d="M135.4,60.6C135.4,60.6,135.4,60.6,135.4,60.6l-0.8,26.8c0,0.2-0.1,0.4-0.2,0.6l-15.7,25.2
				c-0.1,0.1-0.1,0.2-0.2,0.2l-17.7,16.9c-0.4,0.4-1,0.4-1.5,0.1c-0.1,0-0.1-0.1-0.2-0.1c-0.5-0.5-17.7-16.9-17.7-16.9
				c-0.1-0.1-0.1-0.1-0.2-0.2L65.6,87.9c-0.1-0.2-0.2-0.4-0.2-0.6l-0.8-26.7c0-0.6,0.4-1.1,0.9-1.2l34.2-7.5c0.2,0,0.3,0,0.5,0
				l34.2,7.5C135,59.5,135.4,60,135.4,60.6z M132.3,87l0.7-25.4l-33-7.2l-33,7.2L67.7,87l15.5,24.8l14.8,14.2
				c0.8,0.8,1.5,1.4,1.9,1.9l16.8-16L132.3,87z"/>
		</g>
		<g>
			<path class="st0" d="M101.2,172.6c0,0.4-0.2,0.7-0.5,1c-0.4,0.3-1,0.3-1.4,0c-18.4-13.8-33.6-27.5-45.3-40.9
				c-0.3-0.4-0.4-0.9-0.1-1.3c0.2-0.4,0.7-0.7,1.2-0.6l33.3,5.3c0.4,0.1,0.8,0.4,0.9,0.8l11.8,35.4
				C101.2,172.4,101.2,172.5,101.2,172.6z M58,133.6c10.6,11.7,23.9,23.7,39.7,35.8l-10.4-31.1L58,133.6z"/>
		</g>
		<g>
			<path class="st0" d="M101.2,129.4c0,0,0,0.1,0,0.1c0,0.4-0.2,0.7-0.5,0.9l-11.8,7.9c-0.3,0.2-0.7,0.3-1.1,0.1
				c-0.4-0.1-0.6-0.5-0.7-0.8l-5.9-24.8c-0.1-0.5,0.1-1,0.6-1.3c0.5-0.3,1-0.2,1.4,0.2l17.7,16.9
				C101.1,128.8,101.2,129.1,101.2,129.4z M89,135.3l9.2-6.1l-13.7-13.1L89,135.3z"/>
		</g>
		<g>
			<path class="st0" d="M67.8,87.3c0,0.2,0,0.4-0.1,0.6l-9.4,16.9c-0.2,0.3-0.4,0.5-0.7,0.6c-0.3,0.1-0.6,0-0.9-0.1L27.9,87.5
				c-0.3-0.2-0.5-0.5-0.5-0.8c-0.1-0.3,0-0.7,0.2-0.9l15.3-21.2c0.2-0.3,0.5-0.5,0.9-0.5c0.3,0,0.7,0.1,0.9,0.3l22.8,22
				C67.6,86.7,67.8,87,67.8,87.3z M56.7,102.6l8.4-15L43.9,67.1L30.2,86.2L56.7,102.6z"/>
		</g>
		<g>
			<path class="st0" d="M44.9,65.3c0,0.2-0.1,0.5-0.2,0.7L29.5,87.2c-0.3,0.4-0.7,0.6-1.2,0.5c-0.4-0.1-0.8-0.4-0.9-0.9
				c-2.7-10-3.1-19.6-1.1-28.5c0.1-0.3,0.3-0.6,0.6-0.8c0.3-0.2,0.7-0.2,1,0l16.4,6.8c0.3,0.1,0.6,0.4,0.7,0.8
				C44.9,65.1,44.9,65.2,44.9,65.3z M29,83.7l12.9-17.9l-13.7-5.6C26.8,67.6,27.1,75.5,29,83.7z"/>
		</g>
		<g>
			<path class="st0" d="M83.5,112.5c0,0.3-0.1,0.5-0.3,0.7c-0.3,0.4-0.8,0.5-1.3,0.4l-25.2-8.3c-0.3-0.1-0.6-0.4-0.7-0.7
				c-0.1-0.3-0.1-0.7,0.1-1l9.4-16.9c0.2-0.4,0.6-0.6,1-0.6c0.4,0,0.8,0.2,1,0.6l15.7,25.2C83.4,112,83.5,112.3,83.5,112.5z
				 M58.9,103.5l20.7,6.8L66.6,89.6L58.9,103.5z"/>
		</g>
		<g>
			<path class="st0" d="M89.4,137.3c0,0.3-0.1,0.6-0.3,0.8c-0.3,0.3-0.7,0.4-1.1,0.4l-33.3-5.3c-0.6-0.1-1.1-0.6-1-1.3l2.2-27.7
				c0-0.4,0.2-0.7,0.5-0.9c0.3-0.2,0.7-0.3,1-0.1l25.2,8.3c0.4,0.1,0.7,0.4,0.8,0.8l5.9,24.8C89.4,137.1,89.4,137.2,89.4,137.3z
				 M56.2,130.9l30.4,4.9l-5.3-22.4l-23.1-7.6L56.2,130.9z"/>
		</g>
		<g>
			<path class="st0" d="M101.2,172.6c0,0.4-0.2,0.7-0.5,1c-0.4,0.3-1,0.3-1.4,0c-8.5-6.4-16.5-12.9-23.8-19.4
				c-0.5-0.4-0.5-1.1-0.2-1.6l11.9-16.1c0.3-0.4,0.7-0.5,1.1-0.5c0.4,0.1,0.8,0.4,0.9,0.8l11.8,35.4
				C101.2,172.4,101.2,172.5,101.2,172.6z M77.9,153.2c6.1,5.4,12.8,10.9,19.8,16.2l-9.9-29.6L77.9,153.2z"/>
		</g>
		<g>
			<path class="st0" d="M58.3,104.2c0,0.1,0,0.2,0,0.3c-0.1,0.5-0.6,0.9-1.1,0.9L35.9,106c-0.4,0-0.9-0.2-1.1-0.6
				c-3.3-6.3-5.8-12.5-7.5-18.6c-0.1-0.5,0-1,0.4-1.3c0.4-0.3,0.9-0.3,1.3-0.1l28.6,17.7C58.1,103.4,58.3,103.8,58.3,104.2z
				 M36.6,103.6l16.6-0.5l-22.7-14C32,93.9,34,98.7,36.6,103.6z"/>
		</g>
		<g>
			<path class="st0" d="M44.9,65.3c0,0.4-0.2,0.7-0.4,0.9c-0.3,0.3-0.8,0.3-1.2,0.2l-16.4-6.8c-0.5-0.2-0.8-0.8-0.7-1.3
				c2.4-10.9,7.6-18.3,11.6-22.5c0.3-0.3,0.8-0.5,1.2-0.3c0.4,0.1,0.8,0.5,0.8,0.9l5.1,28.7C44.9,65.2,44.9,65.2,44.9,65.3z
				 M28.8,57.8l13.5,5.6l-4.3-24.2C33.6,44.4,30.4,50.9,28.8,57.8z"/>
		</g>
		<g>
			<path class="st0" d="M79.2,47.2c0,0.3-0.1,0.6-0.3,0.8L66.7,61.4c-0.2,0.2-0.4,0.3-0.6,0.4l-22,4.7c-0.3,0.1-0.6,0-0.9-0.2
				c-0.3-0.2-0.4-0.5-0.5-0.8l-5.1-28.7c-0.1-0.4,0.1-0.8,0.4-1.1c0.3-0.3,0.7-0.4,1.1-0.3l39.3,10.6c0.4,0.1,0.7,0.4,0.8,0.8
				C79.1,47,79.2,47.1,79.2,47.2z M65.2,59.5l10.6-11.7l-35.7-9.6l4.6,25.7L65.2,59.5z"/>
		</g>
		<g>
			<path class="st0" d="M101.2,53.1C101.2,53.1,101.2,53.1,101.2,53.1c0,0.6-0.4,1-0.9,1.2L66,61.7c-0.5,0.1-1-0.1-1.3-0.6
				c-0.3-0.4-0.2-1,0.1-1.4l12.2-13.4c0.3-0.3,0.8-0.5,1.2-0.3l22,5.9C100.8,52.1,101.2,52.6,101.2,53.1z M69.2,58.6L95,53
				l-16.6-4.5L69.2,58.6z"/>
		</g>
		<g>
			<path class="st0" d="M101.2,53.1c0,0.3-0.1,0.5-0.3,0.7c-0.3,0.4-0.8,0.5-1.2,0.4l-22-5.9c-0.4-0.1-0.7-0.4-0.8-0.7l-7.2-18.5
				c-0.2-0.4-0.1-0.9,0.2-1.2c0.3-0.3,0.8-0.5,1.2-0.4c12.7,3.4,23.6,12.5,30,25C101.1,52.7,101.2,52.9,101.2,53.1z M78.9,46.2
				l18.8,5C91.8,41.4,83,34,72.7,30.6L78.9,46.2z"/>
		</g>
		<g>
			<path class="st0" d="M79.2,47.2c0,0.3-0.1,0.6-0.3,0.8c-0.3,0.3-0.8,0.5-1.2,0.4L38.3,37.7c-0.4-0.1-0.7-0.4-0.8-0.8
				c-0.1-0.4,0-0.8,0.3-1.1c8-8.6,20.5-11.7,33.3-8.2c0.4,0.1,0.7,0.4,0.8,0.7l7.2,18.5C79.1,46.9,79.2,47.1,79.2,47.2z M40.9,36
				L76,45.4l-6.1-15.7C58.9,26.9,48.2,29.2,40.9,36z"/>
		</g>
		<g>
			<path class="st0" d="M172.7,86.5c0,0.1,0,0.2,0,0.3c-4,14.7-12.9,30.1-26.7,45.9c-0.3,0.4-0.8,0.5-1.3,0.3
				c-0.5-0.1-0.8-0.6-0.8-1l-2.2-27.7c0-0.4,0.2-0.9,0.6-1.1l28.6-17.7c0.4-0.3,0.9-0.2,1.3,0.1C172.5,85.8,172.7,86.1,172.7,86.5z
				 M146,129c11.6-13.7,19.5-27.1,23.5-39.9l-25.4,15.7L146,129z"/>
		</g>
		<g>
			<path class="st0" d="M146.3,131.9c0,0.3-0.1,0.6-0.3,0.8c-11.6,13.4-26.9,27.1-45.3,40.9c-0.4,0.3-1,0.3-1.4,0
				c-0.4-0.3-0.6-0.8-0.4-1.3l11.8-35.4c0.1-0.4,0.5-0.7,0.9-0.8l33.3-5.3c0.5-0.1,1,0.2,1.2,0.6
				C146.2,131.5,146.3,131.7,146.3,131.9z M102.3,169.4c15.8-12.1,29.1-24.1,39.7-35.8l-29.3,4.7L102.3,169.4z"/>
		</g>
		<g>
			<path class="st0" d="M118.9,112.5c0,0.1,0,0.2,0,0.3l-5.9,24.8c-0.1,0.4-0.4,0.7-0.7,0.8c-0.4,0.1-0.8,0.1-1.1-0.1l-11.8-7.9
				c-0.3-0.2-0.5-0.5-0.5-0.9c0-0.4,0.1-0.7,0.4-1l17.7-16.9c0.4-0.4,1-0.4,1.4-0.2C118.7,111.7,118.9,112.1,118.9,112.5z
				 M111,135.3l4.6-19.2l-13.7,13.1L111,135.3z"/>
		</g>
		<g>
			<path class="st0" d="M172.7,86.5c0,0.1,0,0.2,0,0.2c-0.1,0.3-0.3,0.6-0.5,0.8l-28.6,17.7c-0.3,0.2-0.6,0.2-0.9,0.1
				c-0.3-0.1-0.6-0.3-0.7-0.6l-9.4-16.9c-0.3-0.5-0.2-1.1,0.2-1.4l22.8-22c0.2-0.2,0.6-0.4,0.9-0.3c0.3,0,0.7,0.2,0.9,0.5l15.3,21.2
				C172.6,86,172.7,86.2,172.7,86.5z M143.3,102.6l26.5-16.4l-13.7-19.1l-21.2,20.4L143.3,102.6z"/>
		</g>
		<g>
			<path class="st0" d="M175,69.8c0,5.5-0.8,11.2-2.4,17c-0.1,0.4-0.5,0.8-0.9,0.9c-0.4,0.1-0.9-0.1-1.2-0.5L155.3,66
				c-0.2-0.3-0.3-0.7-0.2-1c0.1-0.3,0.4-0.6,0.7-0.8l16.4-6.8c0.3-0.1,0.7-0.1,1,0c0.3,0.2,0.5,0.5,0.6,0.8
				C174.6,62,175,65.9,175,69.8z M171,83.7c1.9-8.2,2.2-16.1,0.8-23.6l-13.7,5.6L171,83.7z"/>
		</g>
		<g>
			<path class="st0" d="M144,104.2c0,0.1,0,0.3-0.1,0.4c-0.1,0.3-0.4,0.6-0.7,0.7l-25.2,8.3c-0.5,0.2-1,0-1.3-0.4
				c-0.3-0.4-0.3-0.9-0.1-1.4l15.7-25.2c0.2-0.4,0.6-0.6,1-0.6c0.4,0,0.8,0.2,1,0.6l9.4,16.9C144,103.8,144,104,144,104.2z
				 M120.4,110.3l20.7-6.8l-7.8-13.9L120.4,110.3z"/>
		</g>
		<g>
			<path class="st0" d="M146.3,131.9c0,0.6-0.4,1.1-1,1.2l-33.3,5.3c-0.4,0.1-0.8-0.1-1.1-0.4c-0.3-0.3-0.4-0.7-0.3-1.1l5.9-24.8
				c0.1-0.4,0.4-0.7,0.8-0.8l25.2-8.3c0.3-0.1,0.7-0.1,1,0.1c0.3,0.2,0.5,0.5,0.5,0.9L146.3,131.9
				C146.3,131.9,146.3,131.9,146.3,131.9z M113.4,135.8l30.4-4.9l-2-25.1l-23.1,7.6L113.4,135.8z"/>
		</g>
		<g>
			<path class="st0" d="M124.9,153.3c0,0.3-0.1,0.6-0.4,0.9c-7.3,6.5-15.3,13-23.8,19.4c-0.4,0.3-1,0.3-1.4,0
				c-0.4-0.3-0.6-0.8-0.4-1.3l11.8-35.4c0.1-0.4,0.5-0.7,0.9-0.8c0.4-0.1,0.9,0.1,1.1,0.5l11.9,16.1
				C124.8,152.8,124.9,153.1,124.9,153.3z M102.3,169.4c7-5.4,13.6-10.8,19.8-16.2l-9.9-13.4L102.3,169.4z"/>
		</g>
		<g>
			<path class="st0" d="M172.7,86.5c0,0.1,0,0.2,0,0.3c-1.6,6-4.1,12.3-7.5,18.6c-0.2,0.4-0.6,0.6-1.1,0.6l-21.3-0.6
				c-0.5,0-1-0.4-1.1-0.9c-0.1-0.5,0.1-1,0.5-1.3l28.6-17.7c0.4-0.3,0.9-0.2,1.3,0.1C172.5,85.8,172.7,86.1,172.7,86.5z
				 M163.4,103.6c2.5-4.9,4.6-9.7,6.1-14.5l-22.7,14L163.4,103.6z"/>
		</g>
		<g>
			<path class="st0" d="M173.8,58.5c0,0.5-0.3,0.9-0.7,1.1l-16.4,6.8c-0.4,0.2-0.9,0.1-1.2-0.2c-0.3-0.3-0.5-0.7-0.4-1.1l5.1-28.7
				c0.1-0.4,0.4-0.8,0.8-0.9s0.9,0,1.2,0.3c4,4.3,9.2,11.6,11.6,22.5C173.8,58.4,173.8,58.5,173.8,58.5z M157.8,63.4l13.5-5.6
				c-1.7-6.9-4.9-13.4-9.2-18.6L157.8,63.4z"/>
		</g>
		<g>
			<path class="st0" d="M162.5,36.6c0,0.1,0,0.1,0,0.2l-5.1,28.7c-0.1,0.3-0.2,0.6-0.5,0.8c-0.3,0.2-0.6,0.2-0.9,0.2l-22-4.7
				c-0.2-0.1-0.5-0.2-0.6-0.4L121.2,48c-0.3-0.3-0.4-0.7-0.3-1.1c0.1-0.4,0.4-0.7,0.8-0.8L161,35.4c0.4-0.1,0.8,0,1.1,0.3
				C162.4,35.9,162.5,36.3,162.5,36.6z M155.3,63.9l4.6-25.7l-35.7,9.6l10.6,11.7L155.3,63.9z"/>
		</g>
		<g>
			<path class="st0" d="M135.4,60.6c0,0.2-0.1,0.4-0.2,0.6c-0.3,0.4-0.8,0.7-1.3,0.6l-34.2-7.5c-0.5-0.1-0.9-0.6-0.9-1.1
				c0-0.5,0.3-1,0.9-1.2l22-5.9c0.4-0.1,0.9,0,1.2,0.3l12.2,13.4C135.3,60,135.4,60.3,135.4,60.6z M105,53l25.8,5.6l-9.2-10.1
				L105,53z"/>
		</g>
		<g>
			<path class="st0" d="M130.4,28.7c0,0.1,0,0.3-0.1,0.4l-7.2,18.5c-0.1,0.3-0.4,0.6-0.8,0.7l-22,5.9c-0.5,0.1-0.9,0-1.2-0.4
				c-0.3-0.4-0.3-0.9-0.1-1.3c6.4-12.4,17.3-21.5,30-25c0.4-0.1,0.9,0,1.2,0.4C130.3,28.2,130.4,28.5,130.4,28.7z M121.1,46.2
				l6.1-15.6C117,34,108.2,41.4,102.4,51.2L121.1,46.2z"/>
		</g>
		<g>
			<path class="st0" d="M162.5,36.6c0,0.1,0,0.2,0,0.3c-0.1,0.4-0.4,0.7-0.8,0.8l-39.3,10.6c-0.4,0.1-0.9,0-1.2-0.4
				c-0.3-0.3-0.4-0.8-0.2-1.2l7.2-18.5c0.1-0.3,0.4-0.6,0.8-0.7c12.8-3.5,25.3-0.4,33.3,8.2C162.4,36,162.5,36.3,162.5,36.6z
				 M124,45.4l35.1-9.5c-7.3-6.7-17.9-9.1-28.9-6.2L124,45.4z"/>
		</g>
	</g>
</g>
</svg>
