<?xml version="1.0" encoding="utf-8"?>
<!-- Generator: Adobe Illustrator 22.1.0, SVG Export Plug-In . SVG Version: 6.00 Build 0)  -->
<svg version="1.1" id="Layer_1" xmlns="http://www.w3.org/2000/svg" xmlns:xlink="http://www.w3.org/1999/xlink" x="0px" y="0px"
	 viewBox="0 0 200 200" style="enable-background:new 0 0 200 200;" xml:space="preserve">
<style type="text/css">
	.st0{clip-path:url(#SVGID_2_);fill:#FFFFFF;}
	.st1{clip-path:url(#SVGID_4_);fill:#FFFFFF;}
	.st2{clip-path:url(#SVGID_6_);fill:#FFFFFF;}
	.st3{clip-path:url(#SVGID_8_);fill:#FFFFFF;}
	.st4{clip-path:url(#SVGID_10_);fill:#FFFFFF;}
	.st5{clip-path:url(#SVGID_12_);fill:#FFFFFF;}
	.st6{clip-path:url(#SVGID_14_);fill:#FFFFFF;}
	.st7{clip-path:url(#SVGID_16_);fill:#FEFEFE;}
	.st8{clip-path:url(#SVGID_18_);fill:#FEFEFE;}
	.st9{clip-path:url(#SVGID_20_);fill:#FEFEFE;}
	.st10{clip-path:url(#SVGID_22_);fill:#FDFDFD;}
	.st11{clip-path:url(#SVGID_24_);fill:#FCFCFD;}
	.st12{clip-path:url(#SVGID_26_);fill:#FCFCFC;}
	.st13{clip-path:url(#SVGID_28_);fill:#FBFBFB;}
	.st14{clip-path:url(#SVGID_30_);fill:#FAFAFA;}
	.st15{clip-path:url(#SVGID_32_);fill:#F9F9F9;}
	.st16{clip-path:url(#SVGID_34_);fill:#F8F8F8;}
	.st17{clip-path:url(#SVGID_36_);fill:#F6F7F7;}
	.st18{clip-path:url(#SVGID_38_);fill:#F5F5F6;}
	.st19{clip-path:url(#SVGID_40_);fill:#F3F4F4;}
	.st20{clip-path:url(#SVGID_42_);fill:#F1F2F2;}
	.st21{clip-path:url(#SVGID_44_);fill:#EFF0F1;}
	.st22{clip-path:url(#SVGID_46_);fill:#EDEEEF;}
	.st23{clip-path:url(#SVGID_48_);fill:#EBECED;}
	.st24{clip-path:url(#SVGID_50_);fill:#E9E9EA;}
	.st25{clip-path:url(#SVGID_52_);fill:#E6E7E8;}
	.st26{clip-path:url(#SVGID_54_);fill:#E6E7E8;}
	.st27{fill:#929497;}
</style>
<g>
	<g>
		<g>
			<g>
				<defs>
					<ellipse id="SVGID_1_" cx="100" cy="100" rx="47.6" ry="74"/>
				</defs>
				<clipPath id="SVGID_2_">
					<use xlink:href="#SVGID_1_"  style="overflow:visible;"/>
				</clipPath>
				<path class="st0" d="M147.6,174H52.4H147.6z"/>
			</g>
			<g>
				<defs>
					<ellipse id="SVGID_3_" cx="100" cy="100" rx="47.6" ry="74"/>
				</defs>
				<clipPath id="SVGID_4_">
					<use xlink:href="#SVGID_3_"  style="overflow:visible;"/>
				</clipPath>
				<rect x="52.4" y="168.1" class="st1" width="95.3" height="5.9"/>
			</g>
			<g>
				<defs>
					<ellipse id="SVGID_5_" cx="100" cy="100" rx="47.6" ry="74"/>
				</defs>
				<clipPath id="SVGID_6_">
					<use xlink:href="#SVGID_5_"  style="overflow:visible;"/>
				</clipPath>
				<rect x="52.4" y="162.2" class="st2" width="95.3" height="5.9"/>
			</g>
			<g>
				<defs>
					<ellipse id="SVGID_7_" cx="100" cy="100" rx="47.6" ry="74"/>
				</defs>
				<clipPath id="SVGID_8_">
					<use xlink:href="#SVGID_7_"  style="overflow:visible;"/>
				</clipPath>
				<rect x="52.4" y="156.3" class="st3" width="95.3" height="5.9"/>
			</g>
			<g>
				<defs>
					<ellipse id="SVGID_9_" cx="100" cy="100" rx="47.6" ry="74"/>
				</defs>
				<clipPath id="SVGID_10_">
					<use xlink:href="#SVGID_9_"  style="overflow:visible;"/>
				</clipPath>
				<rect x="52.4" y="150.4" class="st4" width="95.3" height="5.9"/>
			</g>
			<g>
				<defs>
					<ellipse id="SVGID_11_" cx="100" cy="100" rx="47.6" ry="74"/>
				</defs>
				<clipPath id="SVGID_12_">
					<use xlink:href="#SVGID_11_"  style="overflow:visible;"/>
				</clipPath>
				<rect x="52.4" y="144.4" class="st5" width="95.3" height="5.9"/>
			</g>
			<g>
				<defs>
					<ellipse id="SVGID_13_" cx="100" cy="100" rx="47.6" ry="74"/>
				</defs>
				<clipPath id="SVGID_14_">
					<use xlink:href="#SVGID_13_"  style="overflow:visible;"/>
				</clipPath>
				<rect x="52.4" y="138.5" class="st6" width="95.3" height="5.9"/>
			</g>
			<g>
				<defs>
					<ellipse id="SVGID_15_" cx="100" cy="100" rx="47.6" ry="74"/>
				</defs>
				<clipPath id="SVGID_16_">
					<use xlink:href="#SVGID_15_"  style="overflow:visible;"/>
				</clipPath>
				<rect x="52.4" y="132.6" class="st7" width="95.3" height="5.9"/>
			</g>
			<g>
				<defs>
					<ellipse id="SVGID_17_" cx="100" cy="100" rx="47.6" ry="74"/>
				</defs>
				<clipPath id="SVGID_18_">
					<use xlink:href="#SVGID_17_"  style="overflow:visible;"/>
				</clipPath>
				<rect x="52.4" y="126.7" class="st8" width="95.3" height="5.9"/>
			</g>
			<g>
				<defs>
					<ellipse id="SVGID_19_" cx="100" cy="100" rx="47.6" ry="74"/>
				</defs>
				<clipPath id="SVGID_20_">
					<use xlink:href="#SVGID_19_"  style="overflow:visible;"/>
				</clipPath>
				<rect x="52.4" y="120.8" class="st9" width="95.3" height="5.9"/>
			</g>
			<g>
				<defs>
					<ellipse id="SVGID_21_" cx="100" cy="100" rx="47.6" ry="74"/>
				</defs>
				<clipPath id="SVGID_22_">
					<use xlink:href="#SVGID_21_"  style="overflow:visible;"/>
				</clipPath>
				<rect x="52.4" y="114.8" class="st10" width="95.3" height="5.9"/>
			</g>
			<g>
				<defs>
					<ellipse id="SVGID_23_" cx="100" cy="100" rx="47.6" ry="74"/>
				</defs>
				<clipPath id="SVGID_24_">
					<use xlink:href="#SVGID_23_"  style="overflow:visible;"/>
				</clipPath>
				<rect x="52.4" y="108.9" class="st11" width="95.3" height="5.9"/>
			</g>
			<g>
				<defs>
					<ellipse id="SVGID_25_" cx="100" cy="100" rx="47.6" ry="74"/>
				</defs>
				<clipPath id="SVGID_26_">
					<use xlink:href="#SVGID_25_"  style="overflow:visible;"/>
				</clipPath>
				<rect x="52.4" y="103" class="st12" width="95.3" height="5.9"/>
			</g>
			<g>
				<defs>
					<ellipse id="SVGID_27_" cx="100" cy="100" rx="47.6" ry="74"/>
				</defs>
				<clipPath id="SVGID_28_">
					<use xlink:href="#SVGID_27_"  style="overflow:visible;"/>
				</clipPath>
				<rect x="52.4" y="97.1" class="st13" width="95.3" height="5.9"/>
			</g>
			<g>
				<defs>
					<ellipse id="SVGID_29_" cx="100" cy="100" rx="47.6" ry="74"/>
				</defs>
				<clipPath id="SVGID_30_">
					<use xlink:href="#SVGID_29_"  style="overflow:visible;"/>
				</clipPath>
				<rect x="52.4" y="91.1" class="st14" width="95.3" height="5.9"/>
			</g>
			<g>
				<defs>
					<ellipse id="SVGID_31_" cx="100" cy="100" rx="47.6" ry="74"/>
				</defs>
				<clipPath id="SVGID_32_">
					<use xlink:href="#SVGID_31_"  style="overflow:visible;"/>
				</clipPath>
				<rect x="52.4" y="85.2" class="st15" width="95.3" height="5.9"/>
			</g>
			<g>
				<defs>
					<ellipse id="SVGID_33_" cx="100" cy="100" rx="47.6" ry="74"/>
				</defs>
				<clipPath id="SVGID_34_">
					<use xlink:href="#SVGID_33_"  style="overflow:visible;"/>
				</clipPath>
				<rect x="52.4" y="79.3" class="st16" width="95.3" height="5.9"/>
			</g>
			<g>
				<defs>
					<ellipse id="SVGID_35_" cx="100" cy="100" rx="47.6" ry="74"/>
				</defs>
				<clipPath id="SVGID_36_">
					<use xlink:href="#SVGID_35_"  style="overflow:visible;"/>
				</clipPath>
				<rect x="52.4" y="73.4" class="st17" width="95.3" height="5.9"/>
			</g>
			<g>
				<defs>
					<ellipse id="SVGID_37_" cx="100" cy="100" rx="47.6" ry="74"/>
				</defs>
				<clipPath id="SVGID_38_">
					<use xlink:href="#SVGID_37_"  style="overflow:visible;"/>
				</clipPath>
				<rect x="52.4" y="67.4" class="st18" width="95.3" height="5.9"/>
			</g>
			<g>
				<defs>
					<ellipse id="SVGID_39_" cx="100" cy="100" rx="47.6" ry="74"/>
				</defs>
				<clipPath id="SVGID_40_">
					<use xlink:href="#SVGID_39_"  style="overflow:visible;"/>
				</clipPath>
				<rect x="52.4" y="61.5" class="st19" width="95.3" height="5.9"/>
			</g>
			<g>
				<defs>
					<ellipse id="SVGID_41_" cx="100" cy="100" rx="47.6" ry="74"/>
				</defs>
				<clipPath id="SVGID_42_">
					<use xlink:href="#SVGID_41_"  style="overflow:visible;"/>
				</clipPath>
				<rect x="52.4" y="55.6" class="st20" width="95.3" height="5.9"/>
			</g>
			<g>
				<defs>
					<ellipse id="SVGID_43_" cx="100" cy="100" rx="47.6" ry="74"/>
				</defs>
				<clipPath id="SVGID_44_">
					<use xlink:href="#SVGID_43_"  style="overflow:visible;"/>
				</clipPath>
				<rect x="52.4" y="49.7" class="st21" width="95.3" height="5.9"/>
			</g>
			<g>
				<defs>
					<ellipse id="SVGID_45_" cx="100" cy="100" rx="47.6" ry="74"/>
				</defs>
				<clipPath id="SVGID_46_">
					<use xlink:href="#SVGID_45_"  style="overflow:visible;"/>
				</clipPath>
				<rect x="52.4" y="43.8" class="st22" width="95.3" height="5.9"/>
			</g>
			<g>
				<defs>
					<ellipse id="SVGID_47_" cx="100" cy="100" rx="47.6" ry="74"/>
				</defs>
				<clipPath id="SVGID_48_">
					<use xlink:href="#SVGID_47_"  style="overflow:visible;"/>
				</clipPath>
				<rect x="52.4" y="37.8" class="st23" width="95.3" height="5.9"/>
			</g>
			<g>
				<defs>
					<ellipse id="SVGID_49_" cx="100" cy="100" rx="47.6" ry="74"/>
				</defs>
				<clipPath id="SVGID_50_">
					<use xlink:href="#SVGID_49_"  style="overflow:visible;"/>
				</clipPath>
				<rect x="52.4" y="31.9" class="st24" width="95.3" height="5.9"/>
			</g>
			<g>
				<defs>
					<ellipse id="SVGID_51_" cx="100" cy="100" rx="47.6" ry="74"/>
				</defs>
				<clipPath id="SVGID_52_">
					<use xlink:href="#SVGID_51_"  style="overflow:visible;"/>
				</clipPath>
				<rect x="52.4" y="26" class="st25" width="95.3" height="5.9"/>
			</g>
			<g>
				<defs>
					<ellipse id="SVGID_53_" cx="100" cy="100" rx="47.6" ry="74"/>
				</defs>
				<clipPath id="SVGID_54_">
					<use xlink:href="#SVGID_53_"  style="overflow:visible;"/>
				</clipPath>
				<path class="st26" d="M52.4,26h95.3H52.4z"/>
			</g>
		</g>
	</g>
	<g>
		<path class="st27" d="M100,25c-26.8,0-48.6,33.6-48.6,75s21.8,75,48.6,75s48.6-33.6,48.6-75c0-8.4-0.9-16.6-2.6-24.5
			c-2.2-9.8-5.6-18.6-10.2-26.3c-4.3-7.3-9.5-13.1-15.3-17.2C114.1,27.3,107.2,25,100,25z M100,173.1c-25.7,0-46.7-32.8-46.7-73.1
			S74.2,26.9,100,26.9c6.8,0,13.3,2.2,19.4,6.6c5.6,4,10.5,9.6,14.7,16.7c4.5,7.5,7.8,16.1,9.9,25.7c1.7,7.7,2.6,15.8,2.6,24.1
			C146.7,140.3,125.7,173.1,100,173.1z"/>
	</g>
	<g>
		<g>
			<path class="st27" d="M100,25c-0.3,0-0.6,0.2-0.8,0.4L85.3,46.7c-0.3,0.4-0.2,1,0.2,1.3l13.9,10.2c0.3,0.2,0.8,0.2,1.1,0
				L114.4,48c0.4-0.3,0.5-0.9,0.2-1.3l-13.9-21.3C100.6,25.2,100.3,25,100,25z M87.4,47L100,27.7L112.6,47L100,56.2L87.4,47z"/>
		</g>
	</g>
	<g>
		<g>
			<path class="st27" d="M100,141.6c-0.2,0-0.4,0.1-0.6,0.2L85.5,152c-0.4,0.3-0.5,0.9-0.2,1.3l13.9,21.3c0.4,0.5,1.3,0.5,1.6,0
				l13.9-21.3c0.3-0.4,0.2-1-0.2-1.3l-13.9-10.2C100.4,141.7,100.2,141.6,100,141.6z M87.4,153l12.6-9.2l12.6,9.2L100,172.3
				L87.4,153z"/>
		</g>
	</g>
	<g>
		<path class="st27" d="M100,56.4c-0.2,0-0.4,0.1-0.5,0.2L65.3,80.1c-0.1,0.1-0.2,0.1-0.2,0.2L51.7,99.4c-0.2,0.3-0.2,0.8,0,1.1
			L65,119.6c0.1,0.1,0.1,0.2,0.2,0.2l34.2,23.5c0.3,0.2,0.8,0.2,1.1,0l34.2-23.5c0.1-0.1,0.2-0.1,0.2-0.2l13.4-19.1
			c0.2-0.3,0.2-0.8,0-1.1l-13.3-19c-0.1-0.1-0.1-0.2-0.2-0.2l-34.2-23.5C100.4,56.5,100.2,56.4,100,56.4z M66.5,81.6l33.5-23
			l33.5,23l12.9,18.4l-12.9,18.4l-33.5,23l-33.5-23l-13-18.4L66.5,81.6z"/>
	</g>
	<g>
		<path class="st27" d="M113,47.4l13.2,52.6L113,152.6c-0.1,0.2,0,0.4,0,0.6l0,0l6,14.5l0,0l1.8-0.7l-5.8-14.3l13.1-52.5
			c0-0.2,0-0.3,0-0.5l0,0L115,47.3l5.9-14.2l-1.8-0.7l-6,14.5C113.1,47,113,47.1,113,47.4L113,47.4L113,47.4L113,47.4z"/>
	</g>
	<g>
		<path class="st27" d="M71.9,100.2L85,152.7l-5.9,14.2l1.8,0.7l6-14.5c0.1-0.2,0.1-0.4,0-0.6l0,0L73.8,100L87,47.4
			c0.1-0.2,0-0.4,0-0.6l0,0l-6-14.5L79.2,33l5.9,14.2L71.9,99.7c0,0.1,0,0.2,0,0.2l0,0C71.9,100.1,71.9,100.2,71.9,100.2L71.9,100.2
			z"/>
	</g>
	<g>
		<path class="st27" d="M134,50.5l-0.7,30.4c0,0.3,0.2,0.7,0.4,0.8l0,0c0.3,0.2,0.6,0.2,0.9,0.1l0,0l10.8-5.2l-0.8-1.7l-9.4,4.5
			l0.7-29.7c0-0.5-0.4-0.9-0.8-1l0,0l-21-2.5l0,0l-0.2,1.9L134,50.5L134,50.5z"/>
	</g>
	<g>
		<path class="st27" d="M65.4,81.8c0.3,0.1,0.7,0.1,0.9-0.1l0,0c0.3-0.2,0.4-0.5,0.4-0.8l0,0L66,50.5l20.1-2.4l-0.2-1.9l-21,2.5
			c-0.5,0.1-0.9,0.5-0.8,1l0,0l0.7,29.7l-9.4-4.5l-0.8,1.7L65.4,81.8L65.4,81.8z"/>
	</g>
	<g>
		<path class="st27" d="M55.4,125.2l9.4-4.5l-0.7,29.7c0,0.5,0.4,0.9,0.8,1l0,0l21,2.5l0.2-1.9L66,149.5l0.7-30.4
			c0-0.3-0.2-0.6-0.4-0.8l0,0c-0.3-0.2-0.6-0.2-0.9-0.1l0,0l-10.8,5.2L55.4,125.2L55.4,125.2z M85.9,153.7L85.9,153.7L85.9,153.7
			L85.9,153.7L85.9,153.7z"/>
	</g>
	<g>
		<path class="st27" d="M114.1,153.7l21-2.5c0.5-0.1,0.9-0.5,0.8-1l0,0l-0.7-29.7l9.4,4.5l0.8-1.7l-10.8-5.2
			c-0.3-0.1-0.7-0.1-0.9,0.1l0,0c-0.3,0.2-0.4,0.5-0.4,0.8l0,0l0.7,30.4l-20.1,2.4l0,0L114.1,153.7L114.1,153.7z"/>
	</g>
</g>
</svg>
