<?xml version="1.0" encoding="utf-8"?>
<!-- Generator: Adobe Illustrator 22.1.0, SVG Export Plug-In . SVG Version: 6.00 Build 0)  -->
<svg version="1.1" id="Layer_1" xmlns="http://www.w3.org/2000/svg" xmlns:xlink="http://www.w3.org/1999/xlink" x="0px" y="0px"
	 viewBox="0 0 200 200" style="enable-background:new 0 0 200 200;" xml:space="preserve">
<style type="text/css">
	.st0{clip-path:url(#SVGID_2_);fill:#FFFFFF;}
	.st1{clip-path:url(#SVGID_2_);fill:#FEFEFE;}
	.st2{clip-path:url(#SVGID_2_);fill:#FDFDFD;}
	.st3{clip-path:url(#SVGID_2_);fill:#FCFCFD;}
	.st4{clip-path:url(#SVGID_2_);fill:#FCFCFC;}
	.st5{clip-path:url(#SVGID_2_);fill:#FBFBFB;}
	.st6{clip-path:url(#SVGID_2_);fill:#FAFAFA;}
	.st7{clip-path:url(#SVGID_2_);fill:#F9F9F9;}
	.st8{clip-path:url(#SVGID_2_);fill:#F8F8F8;}
	.st9{clip-path:url(#SVGID_2_);fill:#F6F7F7;}
	.st10{clip-path:url(#SVGID_2_);fill:#F5F5F6;}
	.st11{clip-path:url(#SVGID_2_);fill:#F3F4F4;}
	.st12{clip-path:url(#SVGID_2_);fill:#F1F2F2;}
	.st13{clip-path:url(#SVGID_2_);fill:#EFF0F1;}
	.st14{clip-path:url(#SVGID_2_);fill:#EDEEEF;}
	.st15{clip-path:url(#SVGID_2_);fill:#EBECED;}
	.st16{clip-path:url(#SVGID_2_);fill:#E9E9EA;}
	.st17{clip-path:url(#SVGID_2_);fill:#E6E7E8;}
	.st18{fill:#929497;}
</style>
<g>
	<g>
		<g>
			<defs>
				<path id="SVGID_1_" d="M100,174c0,0-47-47.6-47-97.1c0-28.2,21.1-51,47-51s47,22.8,47,51C147,126.5,100,174,100,174z"/>
			</defs>
			<clipPath id="SVGID_2_">
				<use xlink:href="#SVGID_1_"  style="overflow:visible;"/>
			</clipPath>
			<path class="st0" d="M147,174H53H147z"/>
			<rect x="53" y="168.1" class="st0" width="94" height="5.9"/>
			<rect x="53" y="162.2" class="st0" width="94" height="5.9"/>
			<rect x="53" y="156.3" class="st0" width="94" height="5.9"/>
			<rect x="53" y="150.3" class="st0" width="94" height="5.9"/>
			<rect x="53" y="144.4" class="st0" width="94" height="5.9"/>
			<rect x="53" y="138.5" class="st0" width="94" height="5.9"/>
			<rect x="53" y="132.6" class="st1" width="94" height="5.9"/>
			<rect x="53" y="126.7" class="st1" width="94" height="5.9"/>
			<rect x="53" y="120.7" class="st1" width="94" height="5.9"/>
			<rect x="53" y="114.8" class="st2" width="94" height="5.9"/>
			<rect x="53" y="108.9" class="st3" width="94" height="5.9"/>
			<rect x="53" y="103" class="st4" width="94" height="5.9"/>
			<rect x="53" y="97" class="st5" width="94" height="5.9"/>
			<rect x="53" y="91.1" class="st6" width="94" height="5.9"/>
			<rect x="53" y="85.2" class="st7" width="94" height="5.9"/>
			<rect x="53" y="79.3" class="st8" width="94" height="5.9"/>
			<rect x="53" y="73.3" class="st9" width="94" height="5.9"/>
			<rect x="53" y="67.4" class="st10" width="94" height="5.9"/>
			<rect x="53" y="61.5" class="st11" width="94" height="5.9"/>
			<rect x="53" y="55.6" class="st12" width="94" height="5.9"/>
			<rect x="53" y="49.7" class="st13" width="94" height="5.9"/>
			<rect x="53" y="43.7" class="st14" width="94" height="5.9"/>
			<rect x="53" y="37.8" class="st15" width="94" height="5.9"/>
			<rect x="53" y="31.9" class="st16" width="94" height="5.9"/>
			<rect x="53" y="26" class="st17" width="94" height="5.9"/>
			<path class="st17" d="M53,26h94H53z"/>
		</g>
	</g>
	<g>
		<path class="st18" d="M100,25c-26.5,0-48,23.3-48,51.9c0,49.4,46.8,97.3,47.3,97.8c0.4,0.4,1,0.4,1.4,0
			c0.5-0.5,47.3-48.4,47.3-97.8C148,48.3,126.5,25,100,25z M100,172.6c-5.8-6.1-46-50.4-46-95.7c0-27.6,20.7-50,46-50
			c25.4,0,46,22.4,46,50C146,122.2,105.8,166.5,100,172.6z"/>
	</g>
	<g>
		<path class="st18" d="M100,25c-0.4,0-0.7,0.2-0.9,0.5l-9.6,19.9l-25.6-2.1c-0.3,0-0.6,0.1-0.8,0.3c-0.2,0.2-0.3,0.6-0.2,0.9
			l36.2,129.7c0.1,0.4,0.5,0.7,0.9,0.7c0.4,0,0.8-0.3,0.9-0.7l36.2-129.7c0.1-0.3,0-0.6-0.2-0.9c-0.2-0.2-0.5-0.4-0.8-0.3l-25.6,2.1
			l-9.6-19.9C100.7,25.2,100.4,25,100,25z M90.1,47.5c0.4,0,0.7-0.2,0.9-0.5l9-18.7l9,18.7c0.2,0.4,0.6,0.6,1,0.5l24.9-2l-34.9,125
			l-34.9-125L90.1,47.5C90,47.5,90.1,47.5,90.1,47.5z"/>
	</g>
	<g>
		<path class="st18" d="M89.3,47.1l0.2,0.2l9.9,7.4l0.2,0.1l17,6.8l13.1,5.2l15.9,10.3l-18,22.1L83,153.9h0l1.5,1.2l44.6-54.7
			l18.7-22.9c0.2-0.2,0.2-0.5,0.2-0.8l0,0c0-0.3-0.2-0.5-0.4-0.7l0,0l-16.9-11l-0.2-0.1l-13.2-5.3L100.5,53l-9.7-7.2L79.2,31
			l-1.5,1.2L89.3,47.1L89.3,47.1z"/>
	</g>
	<g>
		<path class="st18" d="M52.2,77.6l63.3,77.5v0l1.5-1.2L54.4,77.2l15.9-10.3l30.1-12l0.2-0.1l9.9-7.4l0.2-0.2l11.7-14.9l-1.5-1.2
			l-11.6,14.8L99.5,53l-30,12l-0.2,0.1l-16.9,11c-0.2,0.1-0.4,0.4-0.4,0.7l0,0c0,0.1,0,0.1,0,0.2l0,0C52,77.2,52.1,77.4,52.2,77.6
			L52.2,77.6z"/>
	</g>
	<g>
		<path class="st18" d="M108.7,145.4l23.8-14.9c0.3-0.2,0.5-0.6,0.4-0.9l0,0l-3.6-29.9l0-0.1l-3.5-14.8l0-0.1l-7.8-24.3l-0.1-0.1
			l-7.1-14.2l-1.7,0.9l7.1,14.1l7.8,24.2l3.5,14.7l3.6,29.2l-23.3,14.6L108.7,145.4L108.7,145.4z"/>
	</g>
	<g>
		<path class="st18" d="M67.5,130.5l23.8,14.9l1-1.6l-23.3-14.6l3.6-29.2l3.5-14.7l7.8-24.2l7-14.1l-1.7-0.9l-7.1,14.2l-0.1,0.1
			l-7.8,24.3l0,0.1l-3.5,14.8l0,0.1l-3.6,29.9c0,0,0,0.1,0,0.1l0,0C67.1,130.1,67.2,130.4,67.5,130.5L67.5,130.5z"/>
	</g>
</g>
</svg>
