<?xml version="1.0" encoding="utf-8"?>
<!-- Generator: Adobe Illustrator 22.1.0, SVG Export Plug-In . SVG Version: 6.00 Build 0)  -->
<svg version="1.1" id="Layer_1" xmlns="http://www.w3.org/2000/svg" xmlns:xlink="http://www.w3.org/1999/xlink" x="0px" y="0px"
	 viewBox="0 0 200 200" style="enable-background:new 0 0 200 200;" xml:space="preserve">
<style type="text/css">
	.st0{clip-path:url(#SVGID_2_);fill:#FFFFFF;}
	.st1{clip-path:url(#SVGID_2_);fill:#FEFEFE;}
	.st2{clip-path:url(#SVGID_2_);fill:#FDFDFD;}
	.st3{clip-path:url(#SVGID_2_);fill:#FCFCFD;}
	.st4{clip-path:url(#SVGID_2_);fill:#FCFCFC;}
	.st5{clip-path:url(#SVGID_2_);fill:#FBFBFB;}
	.st6{clip-path:url(#SVGID_2_);fill:#FAFAFA;}
	.st7{clip-path:url(#SVGID_2_);fill:#F9F9F9;}
	.st8{clip-path:url(#SVGID_2_);fill:#F8F8F8;}
	.st9{clip-path:url(#SVGID_2_);fill:#F6F7F7;}
	.st10{clip-path:url(#SVGID_2_);fill:#F5F5F6;}
	.st11{clip-path:url(#SVGID_2_);fill:#F3F4F4;}
	.st12{clip-path:url(#SVGID_2_);fill:#F1F2F2;}
	.st13{clip-path:url(#SVGID_2_);fill:#EFF0F1;}
	.st14{clip-path:url(#SVGID_2_);fill:#EDEEEF;}
	.st15{clip-path:url(#SVGID_2_);fill:#EBECED;}
	.st16{clip-path:url(#SVGID_2_);fill:#E9E9EA;}
	.st17{clip-path:url(#SVGID_2_);fill:#E6E7E8;}
	.st18{fill:#929497;}
	.st19{clip-path:url(#SVGID_4_);fill:#FFFFFF;}
	.st20{clip-path:url(#SVGID_4_);fill:#FEFEFE;}
	.st21{clip-path:url(#SVGID_4_);fill:#FDFDFD;}
	.st22{clip-path:url(#SVGID_4_);fill:#FCFCFD;}
	.st23{clip-path:url(#SVGID_4_);fill:#FCFCFC;}
	.st24{clip-path:url(#SVGID_4_);fill:#FBFBFB;}
	.st25{clip-path:url(#SVGID_4_);fill:#FAFAFA;}
	.st26{clip-path:url(#SVGID_4_);fill:#F9F9F9;}
	.st27{clip-path:url(#SVGID_4_);fill:#F8F8F8;}
	.st28{clip-path:url(#SVGID_4_);fill:#F6F7F7;}
	.st29{clip-path:url(#SVGID_4_);fill:#F5F5F6;}
	.st30{clip-path:url(#SVGID_4_);fill:#F3F4F4;}
	.st31{clip-path:url(#SVGID_4_);fill:#F1F2F2;}
	.st32{clip-path:url(#SVGID_4_);fill:#EFF0F1;}
	.st33{clip-path:url(#SVGID_4_);fill:#EDEEEF;}
	.st34{clip-path:url(#SVGID_4_);fill:#EBECED;}
	.st35{clip-path:url(#SVGID_4_);fill:#E9E9EA;}
	.st36{clip-path:url(#SVGID_4_);fill:#E6E7E8;}
	.st37{clip-path:url(#SVGID_6_);fill:#FFFFFF;}
	.st38{clip-path:url(#SVGID_6_);fill:#FEFEFE;}
	.st39{clip-path:url(#SVGID_6_);fill:#FDFDFD;}
	.st40{clip-path:url(#SVGID_6_);fill:#FCFCFD;}
	.st41{clip-path:url(#SVGID_6_);fill:#FCFCFC;}
	.st42{clip-path:url(#SVGID_6_);fill:#FBFBFB;}
	.st43{clip-path:url(#SVGID_6_);fill:#FAFAFA;}
	.st44{clip-path:url(#SVGID_6_);fill:#F9F9F9;}
	.st45{clip-path:url(#SVGID_6_);fill:#F8F8F8;}
	.st46{clip-path:url(#SVGID_6_);fill:#F6F7F7;}
	.st47{clip-path:url(#SVGID_6_);fill:#F5F5F6;}
	.st48{clip-path:url(#SVGID_6_);fill:#F3F4F4;}
	.st49{clip-path:url(#SVGID_6_);fill:#F1F2F2;}
	.st50{clip-path:url(#SVGID_6_);fill:#EFF0F1;}
	.st51{clip-path:url(#SVGID_6_);fill:#EDEEEF;}
	.st52{clip-path:url(#SVGID_6_);fill:#EBECED;}
	.st53{clip-path:url(#SVGID_6_);fill:#E9E9EA;}
	.st54{clip-path:url(#SVGID_6_);fill:#E6E7E8;}
	.st55{clip-path:url(#SVGID_8_);fill:#FFFFFF;}
	.st56{clip-path:url(#SVGID_8_);fill:#FEFEFE;}
	.st57{clip-path:url(#SVGID_8_);fill:#FDFDFD;}
	.st58{clip-path:url(#SVGID_8_);fill:#FCFCFD;}
	.st59{clip-path:url(#SVGID_8_);fill:#FCFCFC;}
	.st60{clip-path:url(#SVGID_8_);fill:#FBFBFB;}
	.st61{clip-path:url(#SVGID_8_);fill:#FAFAFA;}
	.st62{clip-path:url(#SVGID_8_);fill:#F9F9F9;}
	.st63{clip-path:url(#SVGID_8_);fill:#F8F8F8;}
	.st64{clip-path:url(#SVGID_8_);fill:#F6F7F7;}
	.st65{clip-path:url(#SVGID_8_);fill:#F5F5F6;}
	.st66{clip-path:url(#SVGID_8_);fill:#F3F4F4;}
	.st67{clip-path:url(#SVGID_8_);fill:#F1F2F2;}
	.st68{clip-path:url(#SVGID_8_);fill:#EFF0F1;}
	.st69{clip-path:url(#SVGID_8_);fill:#EDEEEF;}
	.st70{clip-path:url(#SVGID_8_);fill:#EBECED;}
	.st71{clip-path:url(#SVGID_8_);fill:#E9E9EA;}
	.st72{clip-path:url(#SVGID_8_);fill:#E6E7E8;}
</style>
<g>
	<g>
		<g>
			<defs>
				<rect id="SVGID_1_" x="26.2" y="26.3" width="147.6" height="147.6"/>
			</defs>
			<clipPath id="SVGID_2_">
				<use xlink:href="#SVGID_1_"  style="overflow:visible;"/>
			</clipPath>
			<path class="st0" d="M26.2,26.3v147.6V26.3z"/>
			<rect x="26.2" y="26.3" class="st0" width="5.9" height="147.6"/>
			<rect x="32.1" y="26.3" class="st0" width="5.9" height="147.6"/>
			<rect x="38" y="26.3" class="st0" width="5.9" height="147.6"/>
			<rect x="43.9" y="26.3" class="st0" width="5.9" height="147.6"/>
			<rect x="49.8" y="26.3" class="st0" width="5.9" height="147.6"/>
			<rect x="55.7" y="26.3" class="st0" width="5.9" height="147.6"/>
			<rect x="61.6" y="26.3" class="st1" width="5.9" height="147.6"/>
			<rect x="67.5" y="26.3" class="st1" width="5.9" height="147.6"/>
			<rect x="73.4" y="26.3" class="st1" width="5.9" height="147.6"/>
			<rect x="79.3" y="26.3" class="st2" width="5.9" height="147.6"/>
			<rect x="85.2" y="26.3" class="st3" width="5.9" height="147.6"/>
			<rect x="91.1" y="26.3" class="st4" width="5.9" height="147.6"/>
			<rect x="97" y="26.3" class="st5" width="5.9" height="147.6"/>
			<rect x="102.9" y="26.3" class="st6" width="5.9" height="147.6"/>
			<rect x="108.8" y="26.3" class="st7" width="5.9" height="147.6"/>
			<rect x="114.7" y="26.3" class="st8" width="5.9" height="147.6"/>
			<rect x="120.6" y="26.3" class="st9" width="5.9" height="147.6"/>
			<rect x="126.5" y="26.3" class="st10" width="5.9" height="147.6"/>
			<rect x="132.4" y="26.3" class="st11" width="5.9" height="147.6"/>
			<rect x="138.3" y="26.3" class="st12" width="5.9" height="147.6"/>
			<rect x="144.2" y="26.3" class="st13" width="5.9" height="147.6"/>
			<rect x="150.1" y="26.3" class="st14" width="5.9" height="147.6"/>
			<rect x="156" y="26.3" class="st15" width="5.9" height="147.6"/>
			<rect x="162" y="26.3" class="st16" width="5.9" height="147.6"/>
			<rect x="167.9" y="26.3" class="st17" width="5.9" height="147.6"/>
			<path class="st17" d="M173.8,173.9V26.3V173.9z"/>
		</g>
	</g>
	<g>
		<path class="st18" d="M173.8,175.1H26.2c-0.7,0-1.2-0.5-1.2-1.2V26.3c0-0.7,0.5-1.2,1.2-1.2h147.6c0.7,0,1.2,0.5,1.2,1.2v147.6
			C175,174.5,174.4,175.1,173.8,175.1z M27.4,172.7h145.2V27.5H27.4V172.7z"/>
	</g>
	<g>
		<g>
			<defs>
				<polygon id="SVGID_3_" points="144.4,100.1 173.8,173.9 100,144.5 55.5,100.1 26.2,26.3 100,55.6 				"/>
			</defs>
			<clipPath id="SVGID_4_">
				<use xlink:href="#SVGID_3_"  style="overflow:visible;"/>
			</clipPath>
			<path class="st19" d="M26.2,26.3v147.6V26.3z"/>
			<rect x="26.2" y="26.3" class="st19" width="5.9" height="147.6"/>
			<rect x="32.1" y="26.3" class="st19" width="5.9" height="147.6"/>
			<rect x="38" y="26.3" class="st19" width="5.9" height="147.6"/>
			<rect x="43.9" y="26.3" class="st19" width="5.9" height="147.6"/>
			<rect x="49.8" y="26.3" class="st19" width="5.9" height="147.6"/>
			<rect x="55.7" y="26.3" class="st19" width="5.9" height="147.6"/>
			<rect x="61.6" y="26.3" class="st20" width="5.9" height="147.6"/>
			<rect x="67.5" y="26.3" class="st20" width="5.9" height="147.6"/>
			<rect x="73.4" y="26.3" class="st20" width="5.9" height="147.6"/>
			<rect x="79.3" y="26.3" class="st21" width="5.9" height="147.6"/>
			<rect x="85.2" y="26.3" class="st22" width="5.9" height="147.6"/>
			<rect x="91.1" y="26.3" class="st23" width="5.9" height="147.6"/>
			<rect x="97" y="26.3" class="st24" width="5.9" height="147.6"/>
			<rect x="102.9" y="26.3" class="st25" width="5.9" height="147.6"/>
			<rect x="108.8" y="26.3" class="st26" width="5.9" height="147.6"/>
			<rect x="114.7" y="26.3" class="st27" width="5.9" height="147.6"/>
			<rect x="120.6" y="26.3" class="st28" width="5.9" height="147.6"/>
			<rect x="126.5" y="26.3" class="st29" width="5.9" height="147.6"/>
			<rect x="132.4" y="26.3" class="st30" width="5.9" height="147.6"/>
			<rect x="138.3" y="26.3" class="st31" width="5.9" height="147.6"/>
			<rect x="144.2" y="26.3" class="st32" width="5.9" height="147.6"/>
			<rect x="150.1" y="26.3" class="st33" width="5.9" height="147.6"/>
			<rect x="156" y="26.3" class="st34" width="5.9" height="147.6"/>
			<rect x="162" y="26.3" class="st35" width="5.9" height="147.6"/>
			<rect x="167.9" y="26.3" class="st36" width="5.9" height="147.6"/>
			<path class="st36" d="M173.8,173.9V26.3V173.9z"/>
		</g>
		<path class="st18" d="M173.8,175.1c-0.1,0-0.3,0-0.4-0.1l-73.8-29.4c-0.2-0.1-0.3-0.2-0.4-0.3l-44.4-44.4
			c-0.1-0.1-0.2-0.3-0.3-0.4L25,26.7c-0.2-0.4-0.1-1,0.3-1.3c0.3-0.3,0.8-0.4,1.3-0.3l73.8,29.4c0.2,0.1,0.3,0.2,0.4,0.3l44.4,44.4
			c0.1,0.1,0.2,0.3,0.3,0.4l29.4,73.8c0.2,0.4,0.1,1-0.3,1.3C174.4,174.9,174.1,175.1,173.8,175.1z M100.6,143.5l71,28.2l-28.2-71
			L99.3,56.7l-71-28.2l28.2,71L100.6,143.5z"/>
	</g>
	<g>
		<g>
			<defs>
				<polygon id="SVGID_5_" points="100,55.6 173.8,26.3 144.4,100.1 100,144.5 26.2,173.9 55.5,100.1 				"/>
			</defs>
			<clipPath id="SVGID_6_">
				<use xlink:href="#SVGID_5_"  style="overflow:visible;"/>
			</clipPath>
			<path class="st37" d="M26.2,26.3v147.6V26.3z"/>
			<rect x="26.2" y="26.3" class="st37" width="5.9" height="147.6"/>
			<rect x="32.1" y="26.3" class="st37" width="5.9" height="147.6"/>
			<rect x="38" y="26.3" class="st37" width="5.9" height="147.6"/>
			<rect x="43.9" y="26.3" class="st37" width="5.9" height="147.6"/>
			<rect x="49.8" y="26.3" class="st37" width="5.9" height="147.6"/>
			<rect x="55.7" y="26.3" class="st37" width="5.9" height="147.6"/>
			<rect x="61.6" y="26.3" class="st38" width="5.9" height="147.6"/>
			<rect x="67.5" y="26.3" class="st38" width="5.9" height="147.6"/>
			<rect x="73.4" y="26.3" class="st38" width="5.9" height="147.6"/>
			<rect x="79.3" y="26.3" class="st39" width="5.9" height="147.6"/>
			<rect x="85.2" y="26.3" class="st40" width="5.9" height="147.6"/>
			<rect x="91.1" y="26.3" class="st41" width="5.9" height="147.6"/>
			<rect x="97" y="26.3" class="st42" width="5.9" height="147.6"/>
			<rect x="102.9" y="26.3" class="st43" width="5.9" height="147.6"/>
			<rect x="108.8" y="26.3" class="st44" width="5.9" height="147.6"/>
			<rect x="114.7" y="26.3" class="st45" width="5.9" height="147.6"/>
			<rect x="120.6" y="26.3" class="st46" width="5.9" height="147.6"/>
			<rect x="126.5" y="26.3" class="st47" width="5.9" height="147.6"/>
			<rect x="132.4" y="26.3" class="st48" width="5.9" height="147.6"/>
			<rect x="138.3" y="26.3" class="st49" width="5.9" height="147.6"/>
			<rect x="144.2" y="26.3" class="st50" width="5.9" height="147.6"/>
			<rect x="150.1" y="26.3" class="st51" width="5.9" height="147.6"/>
			<rect x="156" y="26.3" class="st52" width="5.9" height="147.6"/>
			<rect x="162" y="26.3" class="st53" width="5.9" height="147.6"/>
			<rect x="167.9" y="26.3" class="st54" width="5.9" height="147.6"/>
			<path class="st54" d="M173.8,173.9V26.3V173.9z"/>
		</g>
		<path class="st18" d="M26.2,175.1c-0.3,0-0.6-0.1-0.8-0.4c-0.3-0.3-0.4-0.8-0.3-1.3l29.4-73.8c0.1-0.2,0.2-0.3,0.3-0.4l44.4-44.4
			c0.1-0.1,0.3-0.2,0.4-0.3l73.8-29.4c0.4-0.2,1-0.1,1.3,0.3c0.3,0.3,0.4,0.8,0.3,1.3l-29.4,73.8c-0.1,0.2-0.2,0.3-0.3,0.4
			l-44.4,44.4c-0.1,0.1-0.3,0.2-0.4,0.3L26.6,175C26.5,175,26.3,175.1,26.2,175.1z M56.5,100.7l-28.2,71l71-28.2l44.1-44.1l28.2-71
			l-71,28.2L56.5,100.7z"/>
	</g>
	<g>
		<path class="st18" d="M131.4,158.2l-62.8,0c-0.7,0-1.2-0.5-1.2-1.2V43.1c0-0.7,0.5-1.2,1.2-1.2h62.8c0.7,0,1.2,0.5,1.2,1.2V157
			c0,0.3-0.1,0.6-0.4,0.8C132,158.1,131.7,158.2,131.4,158.2z M69.7,155.8l60.5,0V44.3H69.7V155.8z"/>
	</g>
	<g>
		<path class="st18" d="M156.9,132.7H43c-0.3,0-0.6-0.1-0.8-0.4c-0.2-0.2-0.4-0.5-0.4-0.8l0-62.8c0-0.7,0.5-1.2,1.2-1.2h113.9
			c0.7,0,1.2,0.5,1.2,1.2v62.8C158.1,132.2,157.6,132.7,156.9,132.7z M44.2,130.3h111.5V69.8H44.2L44.2,130.3z"/>
	</g>
	<g>
		<g>
			<defs>
				<polygon id="SVGID_7_" points="68.5,131.5 55.5,100.1 68.5,68.6 100,55.6 131.4,68.6 144.4,100.1 131.4,131.5 100,144.5 				"/>
			</defs>
			<clipPath id="SVGID_8_">
				<use xlink:href="#SVGID_7_"  style="overflow:visible;"/>
			</clipPath>
			<path class="st55" d="M55.5,55.6v88.9V55.6z"/>
			<rect x="55.5" y="55.6" class="st55" width="3.6" height="88.9"/>
			<rect x="59.1" y="55.6" class="st55" width="3.6" height="88.9"/>
			<rect x="62.6" y="55.6" class="st55" width="3.6" height="88.9"/>
			<rect x="66.2" y="55.6" class="st55" width="3.6" height="88.9"/>
			<rect x="69.7" y="55.6" class="st55" width="3.6" height="88.9"/>
			<rect x="73.3" y="55.6" class="st55" width="3.6" height="88.9"/>
			<rect x="76.8" y="55.6" class="st56" width="3.6" height="88.9"/>
			<rect x="80.4" y="55.6" class="st56" width="3.6" height="88.9"/>
			<rect x="84" y="55.6" class="st56" width="3.6" height="88.9"/>
			<rect x="87.5" y="55.6" class="st57" width="3.6" height="88.9"/>
			<rect x="91.1" y="55.6" class="st58" width="3.6" height="88.9"/>
			<rect x="94.6" y="55.6" class="st59" width="3.6" height="88.9"/>
			<rect x="98.2" y="55.6" class="st60" width="3.6" height="88.9"/>
			<rect x="101.7" y="55.6" class="st61" width="3.6" height="88.9"/>
			<rect x="105.3" y="55.6" class="st62" width="3.6" height="88.9"/>
			<rect x="108.8" y="55.6" class="st63" width="3.6" height="88.9"/>
			<rect x="112.4" y="55.6" class="st64" width="3.6" height="88.9"/>
			<rect x="116" y="55.6" class="st65" width="3.6" height="88.9"/>
			<rect x="119.5" y="55.6" class="st66" width="3.6" height="88.9"/>
			<rect x="123.1" y="55.6" class="st67" width="3.6" height="88.9"/>
			<rect x="126.6" y="55.6" class="st68" width="3.6" height="88.9"/>
			<rect x="130.2" y="55.6" class="st69" width="3.6" height="88.9"/>
			<rect x="133.7" y="55.6" class="st70" width="3.6" height="88.9"/>
			<rect x="137.3" y="55.6" class="st71" width="3.6" height="88.9"/>
			<rect x="140.8" y="55.6" class="st72" width="3.6" height="88.9"/>
			<path class="st72" d="M144.4,144.5V55.6V144.5z"/>
		</g>
		<path class="st18" d="M100,145.7c-0.2,0-0.3,0-0.5-0.1l-31.4-13c-0.3-0.1-0.5-0.4-0.6-0.6l-13-31.4c-0.1-0.3-0.1-0.6,0-0.9
			l13-31.4c0.1-0.3,0.4-0.5,0.6-0.6l31.4-13c0.3-0.1,0.6-0.1,0.9,0l31.4,13c0.3,0.1,0.5,0.4,0.6,0.6l13,31.4c0.1,0.3,0.1,0.6,0,0.9
			l-13,31.4c-0.1,0.3-0.4,0.5-0.6,0.6l-31.4,13C100.3,145.7,100.1,145.7,100,145.7z M69.5,130.6l30.5,12.6l30.5-12.6l12.6-30.5
			l-12.6-30.5L100,56.9L69.5,69.6l-12.6,30.5L69.5,130.6z"/>
	</g>
</g>
</svg>
