<?xml version="1.0" encoding="utf-8"?>
<!-- Generator: Adobe Illustrator 22.1.0, SVG Export Plug-In . SVG Version: 6.00 Build 0)  -->
<svg version="1.1" id="Layer_1" xmlns="http://www.w3.org/2000/svg" xmlns:xlink="http://www.w3.org/1999/xlink" x="0px" y="0px"
	 viewBox="0 0 200 200" style="enable-background:new 0 0 200 200;" xml:space="preserve">
<style type="text/css">
	.st0{clip-path:url(#SVGID_2_);fill:#FFFFFF;}
	.st1{clip-path:url(#SVGID_2_);fill:#FEFEFE;}
	.st2{clip-path:url(#SVGID_2_);fill:#FDFDFD;}
	.st3{clip-path:url(#SVGID_2_);fill:#FCFCFD;}
	.st4{clip-path:url(#SVGID_2_);fill:#FCFCFC;}
	.st5{clip-path:url(#SVGID_2_);fill:#FBFBFB;}
	.st6{clip-path:url(#SVGID_2_);fill:#FAFAFA;}
	.st7{clip-path:url(#SVGID_2_);fill:#F9F9F9;}
	.st8{clip-path:url(#SVGID_2_);fill:#F8F8F8;}
	.st9{clip-path:url(#SVGID_2_);fill:#F6F7F7;}
	.st10{clip-path:url(#SVGID_2_);fill:#F5F5F6;}
	.st11{clip-path:url(#SVGID_2_);fill:#F3F4F4;}
	.st12{clip-path:url(#SVGID_2_);fill:#F1F2F2;}
	.st13{clip-path:url(#SVGID_2_);fill:#EFF0F1;}
	.st14{clip-path:url(#SVGID_2_);fill:#EDEEEF;}
	.st15{clip-path:url(#SVGID_2_);fill:#EBECED;}
	.st16{clip-path:url(#SVGID_2_);fill:#E9E9EA;}
	.st17{clip-path:url(#SVGID_2_);fill:#E6E7E8;}
	.st18{fill:#929497;}
</style>
<g>
	<g>
		<g>
			<defs>
				<polygon id="SVGID_1_" points="41.2,158.8 55.8,173.9 144.2,173.9 158.8,158.8 158.8,41.2 144.2,26.1 55.8,26.1 41.2,41.2 				
					"/>
			</defs>
			<clipPath id="SVGID_2_">
				<use xlink:href="#SVGID_1_"  style="overflow:visible;"/>
			</clipPath>
			<path class="st0" d="M41.2,173.9l117.5,0L41.2,173.9z"/>
			<rect x="41.2" y="168" class="st0" width="117.5" height="5.9"/>
			<rect x="41.2" y="162" class="st0" width="117.5" height="5.9"/>
			<rect x="41.2" y="156.1" class="st0" width="117.5" height="5.9"/>
			<rect x="41.2" y="150.2" class="st0" width="117.5" height="5.9"/>
			<rect x="41.2" y="144.3" class="st0" width="117.5" height="5.9"/>
			<rect x="41.2" y="138.4" class="st0" width="117.5" height="5.9"/>
			<rect x="41.2" y="132.5" class="st1" width="117.5" height="5.9"/>
			<rect x="41.2" y="126.6" class="st1" width="117.5" height="5.9"/>
			<rect x="41.2" y="120.7" class="st1" width="117.5" height="5.9"/>
			<rect x="41.2" y="114.8" class="st2" width="117.5" height="5.9"/>
			<rect x="41.2" y="108.9" class="st3" width="117.5" height="5.9"/>
			<rect x="41.2" y="103" class="st4" width="117.5" height="5.9"/>
			<rect x="41.2" y="97" class="st5" width="117.5" height="5.9"/>
			<rect x="41.2" y="91.1" class="st6" width="117.5" height="5.9"/>
			<rect x="41.2" y="85.2" class="st7" width="117.5" height="5.9"/>
			<rect x="41.2" y="79.3" class="st8" width="117.5" height="5.9"/>
			<rect x="41.2" y="73.4" class="st9" width="117.5" height="5.9"/>
			<rect x="41.2" y="67.5" class="st10" width="117.5" height="5.9"/>
			<rect x="41.2" y="61.6" class="st11" width="117.5" height="5.9"/>
			<rect x="41.2" y="55.7" class="st12" width="117.5" height="5.9"/>
			<rect x="41.2" y="49.8" class="st13" width="117.5" height="5.9"/>
			<rect x="41.2" y="43.9" class="st14" width="117.5" height="5.9"/>
			<rect x="41.2" y="38" class="st15" width="117.5" height="5.9"/>
			<rect x="41.2" y="32" class="st16" width="117.5" height="5.9"/>
			<rect x="41.2" y="26.1" class="st17" width="117.5" height="5.9"/>
			<path class="st17" d="M158.8,26.1l-117.5,0L158.8,26.1z"/>
		</g>
		<path class="st18" d="M159.9,41.2l0,117.5c0,0.3-0.1,0.6-0.3,0.8L145,174.7c-0.2,0.2-0.5,0.3-0.8,0.3l-88.4,0
			c-0.3,0-0.6-0.1-0.8-0.3l-14.6-15.1c-0.2-0.2-0.3-0.5-0.3-0.8l0-117.5c0-0.3,0.1-0.6,0.3-0.8L55,25.4c0.2-0.2,0.5-0.3,0.8-0.3
			l88.4,0c0.3,0,0.6,0.1,0.8,0.3l14.6,15.1C159.8,40.7,159.9,40.9,159.9,41.2z M157.6,158.3l0-116.6l-13.9-14.4l-87.5,0L42.4,41.7
			l0,116.6l13.9,14.4l87.5,0L157.6,158.3z"/>
	</g>
	<g>
		<path class="st18" d="M149.8,51.3l0,97.3c0,0.4-0.2,0.7-0.4,0.9l-16.4,12.5c-0.2,0.2-0.4,0.2-0.7,0.2l-64.4,0
			c-0.2,0-0.5-0.1-0.7-0.2l-16.4-12.5c-0.3-0.2-0.4-0.6-0.4-0.9l0-97.3c0-0.4,0.2-0.7,0.4-0.9l16.4-12.5c0.2-0.1,0.4-0.2,0.7-0.2
			l64.4,0c0.2,0,0.5,0.1,0.7,0.2l16.4,12.5C149.6,50.6,149.8,51,149.8,51.3z M147.5,148.1l0-96.2L131.8,40l-63.7,0L52.5,51.9l0,96.2
			L68.2,160l63.7,0L147.5,148.1z"/>
	</g>
	<g>
		<path class="st18" d="M136,100c0,0,0,0.1,0,0.1l-4.4,47.7c0,0.5-0.4,0.9-1,1l-30.4,4.4c-0.1,0-0.2,0-0.3,0l-30.4-4.4
			c-0.5-0.1-0.9-0.5-1-1L64,100.1c0-0.1,0-0.1,0-0.2l4.4-47.7c0-0.5,0.4-0.9,1-1l30.4-4.4c0.1,0,0.2,0,0.3,0l30.4,4.4
			c0.5,0.1,0.9,0.5,1,1l4.4,47.7C136,99.9,136,100,136,100z M129.4,146.7l4.3-46.7l-4.3-46.7L100,49.1l-29.4,4.2L66.3,100l4.3,46.7
			l29.4,4.2L129.4,146.7z"/>
	</g>
	<g>
		<path class="st18" d="M159.9,158.8c0,0.3-0.1,0.6-0.3,0.8L145,174.7c-0.2,0.2-0.5,0.3-0.8,0.3c-0.3,0-0.6-0.1-0.8-0.4l-12-12.7
			c-0.2-0.2-0.3-0.4-0.3-0.6l-1.8-13.5c0-0.3,0.1-0.7,0.3-0.9c0.2-0.2,0.6-0.4,0.9-0.4l18.2,1c0.3,0,0.5,0.1,0.7,0.3l10.1,10.1
			C159.8,158.2,159.9,158.5,159.9,158.8z M144.2,172.2l13-13.4l-9-9l-16.4-0.9l1.6,11.8L144.2,172.2z"/>
	</g>
	<g>
		<path class="st18" d="M70.7,147.7c0,0,0,0.1,0,0.1l-1.8,13.5c0,0.2-0.1,0.5-0.3,0.6l-12,12.7c-0.2,0.2-0.5,0.4-0.8,0.4
			c-0.3,0-0.6-0.1-0.8-0.3l-14.6-15.1c-0.4-0.4-0.4-1.2,0-1.6l10.1-10.1c0.2-0.2,0.5-0.3,0.7-0.3l18.2-1c0.3,0,0.7,0.1,0.9,0.4
			C70.6,147.1,70.7,147.4,70.7,147.7z M66.7,160.6l1.5-11.8l-16.4,0.9l-9,9l13,13.4L66.7,160.6z"/>
	</g>
	<g>
		<path class="st18" d="M70.7,52.3c0,0.3-0.1,0.6-0.3,0.8c-0.2,0.2-0.6,0.4-0.9,0.4l-18.2-1c-0.3,0-0.5-0.1-0.7-0.3L40.4,42
			c-0.4-0.4-0.4-1.1,0-1.6L55,25.3c0.2-0.2,0.5-0.4,0.8-0.3c0.3,0,0.6,0.1,0.8,0.4l12,12.7c0.2,0.2,0.3,0.4,0.3,0.6l1.8,13.5
			C70.7,52.2,70.7,52.3,70.7,52.3z M51.8,50.2l16.4,0.9l-1.5-11.8L55.8,27.8l-13,13.4L51.8,50.2z"/>
	</g>
	<g>
		<path class="st18" d="M159.9,41.2c0,0.3-0.1,0.6-0.3,0.8l-10.1,10.1c-0.2,0.2-0.5,0.3-0.7,0.3l-18.2,1c-0.3,0-0.7-0.1-0.9-0.4
			c-0.2-0.2-0.3-0.6-0.3-0.9l1.8-13.5c0-0.2,0.1-0.5,0.3-0.6l12-12.7c0.2-0.2,0.5-0.4,0.8-0.4c0.3,0,0.6,0.1,0.8,0.3l14.6,15.1
			C159.8,40.7,159.9,40.9,159.9,41.2z M148.2,50.2l9-9l-13-13.4l-10.9,11.6l-1.6,11.8L148.2,50.2z"/>
	</g>
	<g>
		<path class="st18" d="M149.8,51.3l0,97.3c0,0.6-0.4,1-1,1.1c-0.6,0.1-1.1-0.3-1.3-0.8l-13.8-48.7c-0.1-0.2-0.1-0.4,0-0.6L147.6,51
			c0.2-0.5,0.7-0.9,1.3-0.8C149.4,50.3,149.8,50.8,149.8,51.3z M147.5,140.5l0-81L136,100L147.5,140.5z"/>
	</g>
	<g>
		<path class="st18" d="M66.3,100c0,0.1,0,0.2,0,0.3L52.4,149c-0.2,0.5-0.7,0.9-1.3,0.8c-0.6-0.1-1-0.6-1-1.1l0-97.3
			c0-0.6,0.4-1,1-1.1c0.6-0.1,1.1,0.3,1.3,0.8l13.8,48.7C66.3,99.8,66.3,99.9,66.3,100z M52.5,140.5L64,100L52.5,59.5L52.5,140.5z"
			/>
	</g>
	<g>
		<path class="st18" d="M133.4,161.2c0,0.1,0,0.1,0,0.2c-0.1,0.6-0.6,1-1.1,1l-64.4,0c-0.6,0-1-0.4-1.1-1c-0.1-0.6,0.3-1.1,0.8-1.3
			l32.2-9.1c0.2-0.1,0.4-0.1,0.6,0l32.2,9.1C133,160.2,133.4,160.7,133.4,161.2z M76,160l48,0l-24-6.8L76,160z"/>
	</g>
	<g>
		<path class="st18" d="M133.4,38.8c0,0.5-0.3,1-0.8,1.1l-32.2,9.1c-0.2,0.1-0.4,0.1-0.6,0l-32.2-9.1c-0.5-0.2-0.9-0.7-0.8-1.3
			c0.1-0.6,0.6-1,1.1-1l64.4,0c0.6,0,1,0.4,1.1,1C133.4,38.7,133.4,38.8,133.4,38.8z M100,46.8l24-6.8l-48,0L100,46.8z"/>
	</g>
</g>
</svg>
