<?xml version="1.0" encoding="utf-8"?>
<!-- Generator: Adobe Illustrator 22.1.0, SVG Export Plug-In . SVG Version: 6.00 Build 0)  -->
<svg version="1.1" id="Layer_1" xmlns="http://www.w3.org/2000/svg" xmlns:xlink="http://www.w3.org/1999/xlink" x="0px" y="0px"
	 viewBox="0 0 200 200" style="enable-background:new 0 0 200 200;" xml:space="preserve">
<style type="text/css">
	.st0{clip-path:url(#SVGID_2_);fill:#FFFFFF;}
	.st1{clip-path:url(#SVGID_2_);fill:#FEFEFE;}
	.st2{clip-path:url(#SVGID_2_);fill:#FDFDFD;}
	.st3{clip-path:url(#SVGID_2_);fill:#FCFCFD;}
	.st4{clip-path:url(#SVGID_2_);fill:#FCFCFC;}
	.st5{clip-path:url(#SVGID_2_);fill:#FBFBFB;}
	.st6{clip-path:url(#SVGID_2_);fill:#FAFAFA;}
	.st7{clip-path:url(#SVGID_2_);fill:#F9F9F9;}
	.st8{clip-path:url(#SVGID_2_);fill:#F8F8F8;}
	.st9{clip-path:url(#SVGID_2_);fill:#F6F7F7;}
	.st10{clip-path:url(#SVGID_2_);fill:#F5F5F6;}
	.st11{clip-path:url(#SVGID_2_);fill:#F3F4F4;}
	.st12{clip-path:url(#SVGID_2_);fill:#F1F2F2;}
	.st13{clip-path:url(#SVGID_2_);fill:#EFF0F1;}
	.st14{clip-path:url(#SVGID_2_);fill:#EDEEEF;}
	.st15{clip-path:url(#SVGID_2_);fill:#EBECED;}
	.st16{clip-path:url(#SVGID_2_);fill:#E9E9EA;}
	.st17{clip-path:url(#SVGID_2_);fill:#E6E7E8;}
	.st18{fill:#929497;}
	.st19{clip-path:url(#SVGID_4_);fill:#FFFFFF;}
	.st20{clip-path:url(#SVGID_4_);fill:#FEFEFE;}
	.st21{clip-path:url(#SVGID_4_);fill:#FDFDFD;}
	.st22{clip-path:url(#SVGID_4_);fill:#FCFCFD;}
	.st23{clip-path:url(#SVGID_4_);fill:#FCFCFC;}
	.st24{clip-path:url(#SVGID_4_);fill:#FBFBFB;}
	.st25{clip-path:url(#SVGID_4_);fill:#FAFAFA;}
	.st26{clip-path:url(#SVGID_4_);fill:#F9F9F9;}
	.st27{clip-path:url(#SVGID_4_);fill:#F8F8F8;}
	.st28{clip-path:url(#SVGID_4_);fill:#F6F7F7;}
	.st29{clip-path:url(#SVGID_4_);fill:#F5F5F6;}
	.st30{clip-path:url(#SVGID_4_);fill:#F3F4F4;}
	.st31{clip-path:url(#SVGID_4_);fill:#F1F2F2;}
	.st32{clip-path:url(#SVGID_4_);fill:#EFF0F1;}
	.st33{clip-path:url(#SVGID_4_);fill:#EDEEEF;}
	.st34{clip-path:url(#SVGID_4_);fill:#EBECED;}
	.st35{clip-path:url(#SVGID_4_);fill:#E9E9EA;}
	.st36{clip-path:url(#SVGID_4_);fill:#E6E7E8;}
</style>
<g>
	<g>
		<g>
			<defs>
				<path id="SVGID_1_" d="M56.9,107.2c30.6,53,43.1,60.4,43.1,60.4s12.5-7.4,43.1-60.4c30.6-53,30.7-67.5,30.7-67.5
					s-12.7-7.2-73.9-7.2c-61.2,0-73.9,7.2-73.9,7.2S26.3,54.2,56.9,107.2z"/>
			</defs>
			<clipPath id="SVGID_2_">
				<use xlink:href="#SVGID_1_"  style="overflow:visible;"/>
			</clipPath>
			<path class="st0" d="M26.1,32.5v135.1V32.5z"/>
			<rect x="26.1" y="32.5" class="st0" width="5.9" height="135.1"/>
			<rect x="32.1" y="32.5" class="st0" width="5.9" height="135.1"/>
			<rect x="38" y="32.5" class="st0" width="5.9" height="135.1"/>
			<rect x="43.9" y="32.5" class="st0" width="5.9" height="135.1"/>
			<rect x="49.8" y="32.5" class="st0" width="5.9" height="135.1"/>
			<rect x="55.7" y="32.5" class="st0" width="5.9" height="135.1"/>
			<rect x="61.6" y="32.5" class="st1" width="5.9" height="135.1"/>
			<rect x="67.5" y="32.5" class="st1" width="5.9" height="135.1"/>
			<rect x="73.4" y="32.5" class="st1" width="5.9" height="135.1"/>
			<rect x="79.3" y="32.5" class="st2" width="5.9" height="135.1"/>
			<rect x="85.2" y="32.5" class="st3" width="5.9" height="135.1"/>
			<rect x="91.1" y="32.5" class="st4" width="5.9" height="135.1"/>
			<rect x="97" y="32.5" class="st5" width="5.9" height="135.1"/>
			<rect x="103" y="32.5" class="st6" width="5.9" height="135.1"/>
			<rect x="108.9" y="32.5" class="st7" width="5.9" height="135.1"/>
			<rect x="114.8" y="32.5" class="st8" width="5.9" height="135.1"/>
			<rect x="120.7" y="32.5" class="st9" width="5.9" height="135.1"/>
			<rect x="126.6" y="32.5" class="st10" width="5.9" height="135.1"/>
			<rect x="132.5" y="32.5" class="st11" width="5.9" height="135.1"/>
			<rect x="138.4" y="32.5" class="st12" width="5.9" height="135.1"/>
			<rect x="144.3" y="32.5" class="st13" width="5.9" height="135.1"/>
			<rect x="150.2" y="32.5" class="st14" width="5.9" height="135.1"/>
			<rect x="156.1" y="32.5" class="st15" width="5.9" height="135.1"/>
			<rect x="162" y="32.5" class="st16" width="5.9" height="135.1"/>
			<rect x="167.9" y="32.5" class="st17" width="5.9" height="135.1"/>
			<path class="st17" d="M173.9,167.5V32.5V167.5z"/>
		</g>
	</g>
	<g>
		<path class="st18" d="M100,168.7c-0.2,0-0.4-0.1-0.6-0.2c-0.5-0.3-13.2-8.1-43.6-60.8C25.5,55.1,25,40.2,25,39.6
			c0-0.4,0.2-0.8,0.6-1c0.5-0.3,13.6-7.3,74.4-7.3c60.8,0,73.9,7,74.4,7.3c0.4,0.2,0.6,0.6,0.6,1c0,0.6-0.5,15.5-30.9,68.1
			c-30.4,52.7-43,60.5-43.6,60.8C100.4,168.6,100.2,168.7,100,168.7z M27.4,40.3c0.5,3.5,4.1,20.6,30.5,66.3l0,0
			c26.3,45.6,39.3,57.3,42.2,59.5c2.8-2.2,15.8-13.9,42.2-59.5c26.3-45.6,30-62.8,30.5-66.3c-3.3-1.3-19.9-6.7-72.6-6.7
			C47.3,33.6,30.7,39,27.4,40.3z"/>
	</g>
	<g>
		<path class="st18" d="M100,66.9c-0.1,0-0.2,0-0.3,0L55.5,56.7c-0.4-0.1-0.8-0.5-0.9-0.9l-2.1-10.9c-0.1-0.4,0.1-0.8,0.4-1.1
			c0.4-0.4,10.4-8.7,47.1-8.7s46.6,8.3,47.1,8.7c0.3,0.3,0.5,0.7,0.4,1.1l-2.1,10.9c-0.1,0.4-0.4,0.8-0.9,0.9l-44.2,10.2
			C100.2,66.9,100.1,66.9,100,66.9z M56.8,54.6l43.2,10l43.2-10l1.8-9.5c-2.4-1.6-13.9-7.7-45-7.7c-31.1,0-42.6,6.2-45,7.7
			L56.8,54.6z"/>
	</g>
	<g>
		<path class="st18" d="M100,52.4c-7.2,0-29.3-3.6-46.5-6.6c-14.8-2.6-27.4-5-27.6-5c-0.5-0.1-0.8-0.5-0.9-0.9
			c-0.1-0.5,0.1-0.9,0.6-1.2c0.5-0.3,13.6-7.3,74.4-7.3c60.8,0,73.9,7,74.4,7.3c0.4,0.2,0.6,0.7,0.6,1.2c-0.1,0.5-0.4,0.8-0.9,0.9
			C171.6,41.2,112.8,52.4,100,52.4z M30.5,39.3c4.9,0.9,13.7,2.5,23.4,4.2c24.6,4.3,40.5,6.6,46.1,6.6c10.7,0,55.5-8.2,69.5-10.8
			c-7.2-2-26.2-5.7-69.5-5.7C56.7,33.6,37.7,37.2,30.5,39.3z"/>
	</g>
	<g>
		<g>
			<path class="st18" d="M100,168.7c-0.3,0-0.5-0.1-0.7-0.3c-0.4-0.3-0.5-0.8-0.4-1.2c0.8-2.5,19.5-60.7,25.9-71.8
				c6.4-11.1,46.5-54.7,48.2-56.6c0.3-0.3,0.8-0.5,1.3-0.3c0.4,0.2,0.7,0.6,0.7,1.1c0,0.6-0.5,15.5-30.9,68.1
				c-30.4,52.7-43,60.5-43.5,60.8C100.4,168.6,100.2,168.7,100,168.7z M172,43.3c-9.3,10.2-39.9,44-45.2,53.2
				c-5.4,9.3-20.1,54.1-24.5,67.5c5.3-5.1,17.9-19.6,39.8-57.5C164.1,68.6,170.3,50.4,172,43.3z"/>
		</g>
	</g>
	<g>
		<g>
			<path class="st18" d="M100,168.7c-0.2,0-0.4-0.1-0.6-0.2c-0.5-0.3-13.2-8.1-43.6-60.8c-8.8-15.3-16-28.8-21.2-40.3
				C25.2,46.8,25,39.9,25,39.6c0-0.5,0.3-0.9,0.7-1.1c0.4-0.2,0.9-0.1,1.3,0.3c0.1,0.1,8.2,9,17.8,19.7C56.6,71.8,71.5,89,75.2,95.4
				c6.4,11.1,25.1,69.3,25.9,71.8c0.1,0.5,0,0.9-0.4,1.2C100.5,168.6,100.3,168.7,100,168.7z M28,43.3c0.9,3.9,3.2,11.1,8.8,23.2
				c5.2,11.4,12.3,24.9,21.1,40.1c22,38.1,34.6,52.5,39.8,57.5c-4.4-13.4-19.1-58.2-24.5-67.6C70.4,91.7,59.9,79,43.1,60.1
				C36.8,53,31.1,46.8,28,43.3z"/>
		</g>
	</g>
	<g>
		<path class="st18" d="M90.2,139c-0.3,0-0.6-0.1-0.8-0.3L56.1,108c-0.2-0.1-0.3-0.3-0.3-0.5l-13-47.9c-0.2-0.6,0.2-1.2,0.8-1.4
			l11.9-3.7c0.5-0.2,1.1,0.1,1.3,0.5l44.2,76.6c0.3,0.5,0.1,1.2-0.4,1.6l-9.8,5.7C90.5,138.9,90.3,139,90.2,139z M57.9,106.6
			l32.4,29.9l8.1-4.7L55.3,56.9l-10,3.1L57.9,106.6z"/>
	</g>
	<g>
		<g>
			<path class="st18" d="M35.7,68.1c-0.1,0-0.1,0-0.2,0c-0.4-0.1-0.7-0.3-0.8-0.6C25.2,46.8,25,39.9,25,39.6c0-0.5,0.3-0.9,0.7-1.1
				c0.4-0.2,0.9-0.1,1.3,0.3c0.1,0.1,8.2,9,17.8,19.7c0.4,0.5,0.4,1.2-0.1,1.6l-8.2,7.7C36.3,68,36,68.1,35.7,68.1z M28,43.3
				C28.9,47,31,53.8,36.1,65l6.2-5.8C36.3,52.5,31,46.6,28,43.3z"/>
		</g>
	</g>
	<g>
		<g>
			<path class="st18" d="M164.3,68.1c-0.3,0-0.6-0.1-0.8-0.3l-8.2-7.7c-0.5-0.4-0.5-1.1-0.1-1.6c9.5-10.7,17.7-19.6,17.8-19.7
				c0.3-0.3,0.8-0.5,1.3-0.3c0.4,0.2,0.7,0.6,0.7,1.1c0,0.3-0.2,7.1-9.6,27.8c-0.2,0.3-0.5,0.6-0.8,0.6
				C164.5,68.1,164.4,68.1,164.3,68.1z M157.7,59.2l6.2,5.8c5.1-11.3,7.2-18.1,8.1-21.8C169,46.6,163.7,52.5,157.7,59.2z"/>
		</g>
	</g>
	<g>
		<g>
			<path class="st18" d="M100,168.7c-0.2,0-0.4-0.1-0.6-0.2c-0.3-0.2-6.5-4-20.5-24c-0.2-0.3-0.2-0.6-0.2-0.9
				c0.1-0.3,0.3-0.6,0.5-0.7l20.2-11.7c0.4-0.2,0.8-0.2,1.1,0l20.2,11.7c0.3,0.2,0.5,0.4,0.5,0.7c0.1,0.3,0,0.6-0.2,0.9
				c-14,20.1-20.2,23.9-20.5,24C100.4,168.6,100.2,168.7,100,168.7z M81.5,144.2c10.8,15.3,16.7,20.6,18.5,21.9
				c1.8-1.4,7.7-6.6,18.5-21.9L100,133.4L81.5,144.2z"/>
		</g>
	</g>
	<g>
		<path class="st18" d="M109.8,139c-0.2,0-0.4-0.1-0.6-0.2l-9.9-5.7c-0.5-0.3-0.7-1-0.4-1.6L143.2,55c0.3-0.5,0.8-0.7,1.3-0.5
			l11.9,3.7c0.6,0.2,0.9,0.8,0.8,1.4l-13,47.9c-0.1,0.2-0.2,0.4-0.3,0.5l-33.3,30.7C110.4,138.9,110.1,139,109.8,139z M101.6,131.7
			l8.1,4.7l32.4-29.9l12.6-46.5l-10-3.1L101.6,131.7z"/>
	</g>
	<g>
		<g>
			<defs>
				<path id="SVGID_3_" d="M74.2,96c18.3,31.7,25.8,36.1,25.8,36.1s7.5-4.4,25.8-36.1c18.3-31.7,18.4-40.4,18.4-40.4
					s-7.6-4.3-44.2-4.3c-36.6,0-44.2,4.3-44.2,4.3S55.9,64.3,74.2,96z"/>
			</defs>
			<clipPath id="SVGID_4_">
				<use xlink:href="#SVGID_3_"  style="overflow:visible;"/>
			</clipPath>
			<path class="st19" d="M55.8,51.3v80.9V51.3z"/>
			<rect x="55.8" y="51.3" class="st19" width="3.5" height="80.9"/>
			<rect x="59.3" y="51.3" class="st19" width="3.5" height="80.9"/>
			<rect x="62.9" y="51.3" class="st19" width="3.5" height="80.9"/>
			<rect x="66.4" y="51.3" class="st19" width="3.5" height="80.9"/>
			<rect x="69.9" y="51.3" class="st19" width="3.5" height="80.9"/>
			<rect x="73.5" y="51.3" class="st19" width="3.5" height="80.9"/>
			<rect x="77" y="51.3" class="st20" width="3.5" height="80.9"/>
			<rect x="80.6" y="51.3" class="st20" width="3.5" height="80.9"/>
			<rect x="84.1" y="51.3" class="st20" width="3.5" height="80.9"/>
			<rect x="87.6" y="51.3" class="st21" width="3.5" height="80.9"/>
			<rect x="91.2" y="51.3" class="st22" width="3.5" height="80.9"/>
			<rect x="94.7" y="51.3" class="st23" width="3.5" height="80.9"/>
			<rect x="98.2" y="51.3" class="st24" width="3.5" height="80.9"/>
			<rect x="101.8" y="51.3" class="st25" width="3.5" height="80.9"/>
			<rect x="105.3" y="51.3" class="st26" width="3.5" height="80.9"/>
			<rect x="108.8" y="51.3" class="st27" width="3.5" height="80.9"/>
			<rect x="112.4" y="51.3" class="st28" width="3.5" height="80.9"/>
			<rect x="115.9" y="51.3" class="st29" width="3.5" height="80.9"/>
			<rect x="119.4" y="51.3" class="st30" width="3.5" height="80.9"/>
			<rect x="123" y="51.3" class="st31" width="3.5" height="80.9"/>
			<rect x="126.5" y="51.3" class="st32" width="3.5" height="80.9"/>
			<rect x="130.1" y="51.3" class="st33" width="3.5" height="80.9"/>
			<rect x="133.6" y="51.3" class="st34" width="3.5" height="80.9"/>
			<rect x="137.1" y="51.3" class="st35" width="3.5" height="80.9"/>
			<rect x="140.7" y="51.3" class="st36" width="3.5" height="80.9"/>
			<path class="st36" d="M144.2,132.1V51.3V132.1z"/>
		</g>
		<path class="st18" d="M100,133.3c-0.2,0-0.4-0.1-0.6-0.2c-0.3-0.2-8-4.9-26.2-36.5l0,0c-18.3-31.6-18.5-40.6-18.5-41
			c0-0.4,0.2-0.8,0.6-1c0.3-0.2,8.3-4.4,44.8-4.4c36.5,0,44.4,4.3,44.8,4.4c0.4,0.2,0.6,0.6,0.6,1c0,0.4-0.3,9.4-18.5,41
			c-18.3,31.6-25.9,36.4-26.2,36.5C100.4,133.2,100.2,133.3,100,133.3z M75.2,95.4c15.1,26.2,22.8,33.6,24.8,35.3
			c2.1-1.7,9.8-9.2,24.8-35.3c15-26,17.7-36.5,18.1-39.1c-2.5-0.9-12.9-3.9-43-3.9c-30.3,0-40.5,2.9-43,3.9
			C57.5,58.9,60.1,69.4,75.2,95.4L75.2,95.4z"/>
	</g>
</g>
</svg>
