<?xml version="1.0" encoding="utf-8"?>
<!-- Generator: Adobe Illustrator 22.1.0, SVG Export Plug-In . SVG Version: 6.00 Build 0)  -->
<svg version="1.1" id="Layer_1" xmlns="http://www.w3.org/2000/svg" xmlns:xlink="http://www.w3.org/1999/xlink" x="0px" y="0px"
	 viewBox="0 0 200 200" style="enable-background:new 0 0 200 200;" xml:space="preserve">
<style type="text/css">
	.st0{clip-path:url(#SVGID_2_);fill:#FFFFFF;}
	.st1{clip-path:url(#SVGID_2_);fill:#FEFEFE;}
	.st2{clip-path:url(#SVGID_2_);fill:#FDFDFD;}
	.st3{clip-path:url(#SVGID_2_);fill:#FCFCFD;}
	.st4{clip-path:url(#SVGID_2_);fill:#FCFCFC;}
	.st5{clip-path:url(#SVGID_2_);fill:#FBFBFB;}
	.st6{clip-path:url(#SVGID_2_);fill:#FAFAFA;}
	.st7{clip-path:url(#SVGID_2_);fill:#F9F9F9;}
	.st8{clip-path:url(#SVGID_2_);fill:#F8F8F8;}
	.st9{clip-path:url(#SVGID_2_);fill:#F6F7F7;}
	.st10{clip-path:url(#SVGID_2_);fill:#F5F5F6;}
	.st11{clip-path:url(#SVGID_2_);fill:#F3F4F4;}
	.st12{clip-path:url(#SVGID_2_);fill:#F1F2F2;}
	.st13{clip-path:url(#SVGID_2_);fill:#EFF0F1;}
	.st14{clip-path:url(#SVGID_2_);fill:#EDEEEF;}
	.st15{clip-path:url(#SVGID_2_);fill:#EBECED;}
	.st16{clip-path:url(#SVGID_2_);fill:#E9E9EA;}
	.st17{clip-path:url(#SVGID_2_);fill:#E6E7E8;}
	.st18{fill:#929497;}
	.st19{clip-path:url(#SVGID_4_);fill:#FFFFFF;}
	.st20{clip-path:url(#SVGID_4_);fill:#FEFEFE;}
	.st21{clip-path:url(#SVGID_4_);fill:#FDFDFD;}
	.st22{clip-path:url(#SVGID_4_);fill:#FCFCFD;}
	.st23{clip-path:url(#SVGID_4_);fill:#FCFCFC;}
	.st24{clip-path:url(#SVGID_4_);fill:#FBFBFB;}
	.st25{clip-path:url(#SVGID_4_);fill:#FAFAFA;}
	.st26{clip-path:url(#SVGID_4_);fill:#F9F9F9;}
	.st27{clip-path:url(#SVGID_4_);fill:#F8F8F8;}
	.st28{clip-path:url(#SVGID_4_);fill:#F6F7F7;}
	.st29{clip-path:url(#SVGID_4_);fill:#F5F5F6;}
	.st30{clip-path:url(#SVGID_4_);fill:#F3F4F4;}
	.st31{clip-path:url(#SVGID_4_);fill:#F1F2F2;}
	.st32{clip-path:url(#SVGID_4_);fill:#EFF0F1;}
	.st33{clip-path:url(#SVGID_4_);fill:#EDEEEF;}
	.st34{clip-path:url(#SVGID_4_);fill:#EBECED;}
	.st35{clip-path:url(#SVGID_4_);fill:#E9E9EA;}
	.st36{clip-path:url(#SVGID_4_);fill:#E6E7E8;}
</style>
<g>
	<g>
		<g>
			<defs>
				<path id="SVGID_1_" d="M138.8,100c0,41-38.8,74.2-38.8,74.2S61.2,141,61.2,100S100,25.8,100,25.8S138.8,59,138.8,100z"/>
			</defs>
			<clipPath id="SVGID_2_">
				<use xlink:href="#SVGID_1_"  style="overflow:visible;"/>
			</clipPath>
			<path class="st0" d="M61.2,174.2h77.5H61.2z"/>
			<rect x="61.2" y="168.3" class="st0" width="77.5" height="5.9"/>
			<rect x="61.2" y="162.3" class="st0" width="77.5" height="5.9"/>
			<rect x="61.2" y="156.4" class="st0" width="77.5" height="5.9"/>
			<rect x="61.2" y="150.5" class="st0" width="77.5" height="5.9"/>
			<rect x="61.2" y="144.5" class="st0" width="77.5" height="5.9"/>
			<rect x="61.2" y="138.6" class="st0" width="77.5" height="5.9"/>
			<rect x="61.2" y="132.6" class="st1" width="77.5" height="5.9"/>
			<rect x="61.2" y="126.7" class="st1" width="77.5" height="5.9"/>
			<rect x="61.2" y="120.8" class="st1" width="77.5" height="5.9"/>
			<rect x="61.2" y="114.8" class="st2" width="77.5" height="5.9"/>
			<rect x="61.2" y="108.9" class="st3" width="77.5" height="5.9"/>
			<rect x="61.2" y="103" class="st4" width="77.5" height="5.9"/>
			<rect x="61.2" y="97" class="st5" width="77.5" height="5.9"/>
			<rect x="61.2" y="91.1" class="st6" width="77.5" height="5.9"/>
			<rect x="61.2" y="85.2" class="st7" width="77.5" height="5.9"/>
			<rect x="61.2" y="79.2" class="st8" width="77.5" height="5.9"/>
			<rect x="61.2" y="73.3" class="st9" width="77.5" height="5.9"/>
			<rect x="61.2" y="67.4" class="st10" width="77.5" height="5.9"/>
			<rect x="61.2" y="61.4" class="st11" width="77.5" height="5.9"/>
			<rect x="61.2" y="55.5" class="st12" width="77.5" height="5.9"/>
			<rect x="61.2" y="49.5" class="st13" width="77.5" height="5.9"/>
			<rect x="61.2" y="43.6" class="st14" width="77.5" height="5.9"/>
			<rect x="61.2" y="37.7" class="st15" width="77.5" height="5.9"/>
			<rect x="61.2" y="31.7" class="st16" width="77.5" height="5.9"/>
			<rect x="61.2" y="25.8" class="st17" width="77.5" height="5.9"/>
			<path class="st17" d="M138.8,25.8H61.2H138.8z"/>
		</g>
	</g>
	<g>
		<path class="st18" d="M100,175c-0.2,0-0.4-0.1-0.5-0.2c-0.4-0.3-39.1-33.9-39.1-74.8c0-40.9,38.7-74.5,39.1-74.8
			c0.3-0.3,0.7-0.3,1,0c0.4,0.3,39.1,33.9,39.1,74.8c0,40.9-38.7,74.5-39.1,74.8C100.4,174.9,100.2,175,100,175z M100,26.9
			C95.4,31,62,62.4,62,100c0,37.6,33.4,69,38,73.1c4.6-4.1,38-35.6,38-73.1C138,62.4,104.6,31,100,26.9z"/>
	</g>
	<g>
		<path class="st18" d="M100,158.7c-0.2,0-0.3,0-0.5-0.1L71.3,139c-0.3-0.2-0.4-0.5-0.3-0.9L81.3,100L71,61.8
			c-0.1-0.3,0-0.7,0.3-0.9l28.2-19.5c0.3-0.2,0.6-0.2,0.9,0L128.7,61c0.3,0.2,0.4,0.5,0.3,0.9L118.7,100l10.3,38.2
			c0.1,0.3,0,0.7-0.3,0.9l-28.2,19.5C100.3,158.6,100.2,158.7,100,158.7z M72.7,138l27.3,18.8l27.3-18.8l-10.3-37.8
			c0-0.1,0-0.3,0-0.4L127.3,62L100,43.1L72.7,62l10.3,37.8c0,0.1,0,0.3,0,0.4L72.7,138z"/>
	</g>
	<g>
		<g>
			<defs>
				<polygon id="SVGID_3_" points="100,174.2 82.2,100 100,25.8 117.8,100 				"/>
			</defs>
			<clipPath id="SVGID_4_">
				<use xlink:href="#SVGID_3_"  style="overflow:visible;"/>
			</clipPath>
			<path class="st19" d="M82.2,174.2h35.7H82.2z"/>
			<rect x="82.2" y="168.3" class="st19" width="35.7" height="5.9"/>
			<rect x="82.2" y="162.3" class="st19" width="35.7" height="5.9"/>
			<rect x="82.2" y="156.4" class="st19" width="35.7" height="5.9"/>
			<rect x="82.2" y="150.5" class="st19" width="35.7" height="5.9"/>
			<rect x="82.2" y="144.5" class="st19" width="35.7" height="5.9"/>
			<rect x="82.2" y="138.6" class="st19" width="35.7" height="5.9"/>
			<rect x="82.2" y="132.6" class="st20" width="35.7" height="5.9"/>
			<rect x="82.2" y="126.7" class="st20" width="35.7" height="5.9"/>
			<rect x="82.2" y="120.8" class="st20" width="35.7" height="5.9"/>
			<rect x="82.2" y="114.8" class="st21" width="35.7" height="5.9"/>
			<rect x="82.2" y="108.9" class="st22" width="35.7" height="5.9"/>
			<rect x="82.2" y="103" class="st23" width="35.7" height="5.9"/>
			<rect x="82.2" y="97" class="st24" width="35.7" height="5.9"/>
			<rect x="82.2" y="91.1" class="st25" width="35.7" height="5.9"/>
			<rect x="82.2" y="85.2" class="st26" width="35.7" height="5.9"/>
			<rect x="82.2" y="79.2" class="st27" width="35.7" height="5.9"/>
			<rect x="82.2" y="73.3" class="st28" width="35.7" height="5.9"/>
			<rect x="82.2" y="67.4" class="st29" width="35.7" height="5.9"/>
			<rect x="82.2" y="61.4" class="st30" width="35.7" height="5.9"/>
			<rect x="82.2" y="55.5" class="st31" width="35.7" height="5.9"/>
			<rect x="82.2" y="49.5" class="st32" width="35.7" height="5.9"/>
			<rect x="82.2" y="43.6" class="st33" width="35.7" height="5.9"/>
			<rect x="82.2" y="37.7" class="st34" width="35.7" height="5.9"/>
			<rect x="82.2" y="31.7" class="st35" width="35.7" height="5.9"/>
			<rect x="82.2" y="25.8" class="st36" width="35.7" height="5.9"/>
			<path class="st36" d="M117.8,25.8H82.2H117.8z"/>
		</g>
		<path class="st18" d="M100,175c-0.4,0-0.7-0.3-0.8-0.6l-17.8-74.2c0-0.1,0-0.3,0-0.4l17.8-74.2c0.1-0.4,0.4-0.6,0.8-0.6
			c0.4,0,0.7,0.3,0.8,0.6l17.8,74.2c0,0.1,0,0.3,0,0.4l-17.8,74.2C100.7,174.7,100.4,175,100,175z M83,100l17,70.8l17-70.8l-17-70.8
			L83,100z"/>
	</g>
	<g>
		<path class="st18" d="M100,147.1c-0.2,0-0.5-0.1-0.6-0.3l-38.8-46.3c-0.2-0.3-0.2-0.7,0-1l38.8-46.3c0.3-0.4,0.9-0.4,1.2,0
			l38.8,46.3c0.2,0.3,0.2,0.7,0,1l-38.8,46.3C100.5,147,100.2,147.1,100,147.1z M62.3,100l37.7,45l37.7-45L100,55L62.3,100z"/>
	</g>
	<g>
		<path class="st18" d="M100,175c-0.2,0-0.4-0.1-0.5-0.2c-0.1,0-5.7-4.9-12.6-13.1c-0.3-0.3-0.3-0.7,0-1l12.5-14.9
			c0.3-0.4,0.9-0.4,1.2,0l12.5,14.9c0.2,0.3,0.2,0.7,0,1c-6.9,8.1-12.6,13-12.6,13.1C100.4,174.9,100.2,175,100,175z M88.5,161.2
			c5.4,6.3,10,10.6,11.5,11.9c1.5-1.3,6.1-5.6,11.5-11.9L100,147.5L88.5,161.2z"/>
	</g>
	<g>
		<path class="st18" d="M100,54.5L100,54.5c-0.2,0-0.5-0.1-0.6-0.3L86.9,39.3c-0.2-0.3-0.2-0.7,0-1c6.9-8.1,12.6-13,12.6-13.1
			c0.3-0.3,0.7-0.3,1,0c0.1,0,5.7,4.9,12.6,13.1c0.3,0.3,0.3,0.7,0,1l-12.5,14.9C100.5,54.4,100.2,54.5,100,54.5z M88.5,38.8
			L100,52.5l11.5-13.7c-5.4-6.3-10-10.6-11.5-11.9C98.5,28.2,93.9,32.5,88.5,38.8z"/>
	</g>
</g>
</svg>
